<svg width="62" height="58" viewBox="0 0 62 58" fill="none" xmlns="http://www.w3.org/2000/svg">
<path d="M30.9033 57.5562C47.553 57.5562 61.0503 44.6718 61.0503 28.7781C61.0503 12.8844 47.553 0 30.9033 0C14.2535 0 0.756226 12.8844 0.756226 28.7781C0.756226 44.6718 14.2535 57.5562 30.9033 57.5562Z" fill="white"/>
<path d="M50.1643 19.5401C49.702 17.8851 48.3359 16.5911 46.6126 16.1497C43.4813 15.3473 30.9139 15.3473 30.9139 15.3473C30.9139 15.3473 18.3465 15.3473 15.2152 16.1497C13.4814 16.5911 12.1259 17.8951 11.6635 19.5401C10.8229 22.5293 10.8229 28.7784 10.8229 28.7784C10.8229 28.7784 10.8229 35.0175 11.6635 38.0167C12.1259 39.6718 13.4919 40.9657 15.2152 41.4071C18.3465 42.2095 30.9139 42.2095 30.9139 42.2095C30.9139 42.2095 43.4813 42.2095 46.6126 41.4071C48.3464 40.9657 49.702 39.6617 50.1643 38.0167C51.0049 35.0276 51.0049 28.7784 51.0049 28.7784C51.0049 28.7784 50.9944 22.5293 50.1643 19.5401ZM26.8789 34.536V23.0208L37.3237 28.7784L26.8789 34.536Z" fill="#FF0404"/>
</svg>
