<svg width="671" height="195" viewBox="0 0 671 195" fill="none" xmlns="http://www.w3.org/2000/svg">
<path d="M206.73 160.555V169.525H205.035V160.555H201.915V159.055H209.85V160.555H206.73ZM213.46 169.705C212.92 169.705 212.425 169.61 211.975 169.42C211.535 169.23 211.16 168.96 210.85 168.61C210.54 168.25 210.3 167.82 210.13 167.32C209.96 166.81 209.875 166.245 209.875 165.625C209.875 165.005 209.96 164.445 210.13 163.945C210.3 163.435 210.54 163.005 210.85 162.655C211.16 162.295 211.535 162.02 211.975 161.83C212.425 161.64 212.92 161.545 213.46 161.545C214 161.545 214.49 161.64 214.93 161.83C215.38 162.02 215.76 162.295 216.07 162.655C216.38 163.005 216.62 163.435 216.79 163.945C216.96 164.445 217.045 165.005 217.045 165.625C217.045 166.245 216.96 166.81 216.79 167.32C216.62 167.82 216.38 168.25 216.07 168.61C215.76 168.96 215.38 169.23 214.93 169.42C214.49 169.61 214 169.705 213.46 169.705ZM213.46 168.355C214.02 168.355 214.47 168.185 214.81 167.845C215.15 167.495 215.32 166.975 215.32 166.285V164.965C215.32 164.275 215.15 163.76 214.81 163.42C214.47 163.07 214.02 162.895 213.46 162.895C212.9 162.895 212.45 163.07 212.11 163.42C211.77 163.76 211.6 164.275 211.6 164.965V166.285C211.6 166.975 211.77 167.495 212.11 167.845C212.45 168.185 212.9 168.355 213.46 168.355ZM218.867 158.425H220.502V163.015H220.577C220.747 162.545 221.022 162.185 221.402 161.935C221.792 161.675 222.247 161.545 222.767 161.545C223.757 161.545 224.522 161.905 225.062 162.625C225.602 163.335 225.872 164.335 225.872 165.625C225.872 166.915 225.602 167.92 225.062 168.64C224.522 169.35 223.757 169.705 222.767 169.705C222.247 169.705 221.792 169.575 221.402 169.315C221.022 169.055 220.747 168.695 220.577 168.235H220.502V169.525H218.867V158.425ZM222.272 168.295C222.842 168.295 223.297 168.115 223.637 167.755C223.977 167.385 224.147 166.9 224.147 166.3V164.95C224.147 164.35 223.977 163.87 223.637 163.51C223.297 163.14 222.842 162.955 222.272 162.955C221.772 162.955 221.352 163.08 221.012 163.33C220.672 163.57 220.502 163.89 220.502 164.29V166.96C220.502 167.36 220.672 167.685 221.012 167.935C221.352 168.175 221.772 168.295 222.272 168.295ZM230.804 169.705C230.244 169.705 229.744 169.61 229.304 169.42C228.864 169.23 228.489 168.96 228.179 168.61C227.869 168.25 227.629 167.82 227.459 167.32C227.299 166.81 227.219 166.245 227.219 165.625C227.219 165.005 227.299 164.445 227.459 163.945C227.629 163.435 227.869 163.005 228.179 162.655C228.489 162.295 228.864 162.02 229.304 161.83C229.744 161.64 230.244 161.545 230.804 161.545C231.374 161.545 231.874 161.645 232.304 161.845C232.744 162.045 233.109 162.325 233.399 162.685C233.689 163.035 233.904 163.445 234.044 163.915C234.194 164.385 234.269 164.89 234.269 165.43V166.045H228.914V166.3C228.914 166.9 229.089 167.395 229.439 167.785C229.799 168.165 230.309 168.355 230.969 168.355C231.449 168.355 231.854 168.25 232.184 168.04C232.514 167.83 232.794 167.545 233.024 167.185L233.984 168.13C233.694 168.61 233.274 168.995 232.724 169.285C232.174 169.565 231.534 169.705 230.804 169.705ZM230.804 162.82C230.524 162.82 230.264 162.87 230.024 162.97C229.794 163.07 229.594 163.21 229.424 163.39C229.264 163.57 229.139 163.785 229.049 164.035C228.959 164.285 228.914 164.56 228.914 164.86V164.965H232.544V164.815C232.544 164.215 232.389 163.735 232.079 163.375C231.769 163.005 231.344 162.82 230.804 162.82ZM239.744 169.525V159.055H246.284V160.555H241.439V163.465H245.744V164.965H241.439V169.525H239.744ZM253.293 169.525C252.863 169.525 252.533 169.405 252.303 169.165C252.073 168.915 251.933 168.6 251.883 168.22H251.808C251.658 168.71 251.383 169.08 250.983 169.33C250.583 169.58 250.098 169.705 249.528 169.705C248.718 169.705 248.093 169.495 247.653 169.075C247.223 168.655 247.008 168.09 247.008 167.38C247.008 166.6 247.288 166.015 247.848 165.625C248.418 165.235 249.248 165.04 250.338 165.04H251.748V164.38C251.748 163.9 251.618 163.53 251.358 163.27C251.098 163.01 250.693 162.88 250.143 162.88C249.683 162.88 249.308 162.98 249.018 163.18C248.728 163.38 248.483 163.635 248.283 163.945L247.308 163.06C247.568 162.62 247.933 162.26 248.403 161.98C248.873 161.69 249.488 161.545 250.248 161.545C251.258 161.545 252.033 161.78 252.573 162.25C253.113 162.72 253.383 163.395 253.383 164.275V168.19H254.208V169.525H253.293ZM249.993 168.46C250.503 168.46 250.923 168.35 251.253 168.13C251.583 167.9 251.748 167.595 251.748 167.215V166.09H250.368C249.238 166.09 248.673 166.44 248.673 167.14V167.41C248.673 167.76 248.788 168.025 249.018 168.205C249.258 168.375 249.583 168.46 249.993 168.46ZM255.811 169.525V161.725H257.446V163.225H257.521C257.631 162.825 257.861 162.475 258.211 162.175C258.561 161.875 259.046 161.725 259.666 161.725H260.101V163.3H259.456C258.806 163.3 258.306 163.405 257.956 163.615C257.616 163.825 257.446 164.135 257.446 164.545V169.525H255.811ZM261.553 169.525V161.725H263.188V163.015H263.263C263.343 162.815 263.438 162.625 263.548 162.445C263.668 162.265 263.808 162.11 263.968 161.98C264.138 161.84 264.333 161.735 264.553 161.665C264.783 161.585 265.048 161.545 265.348 161.545C265.878 161.545 266.348 161.675 266.758 161.935C267.168 162.195 267.468 162.595 267.658 163.135H267.703C267.843 162.695 268.113 162.32 268.513 162.01C268.913 161.7 269.428 161.545 270.058 161.545C270.838 161.545 271.443 161.81 271.873 162.34C272.303 162.86 272.518 163.605 272.518 164.575V169.525H270.883V164.77C270.883 164.17 270.768 163.72 270.538 163.42C270.308 163.11 269.943 162.955 269.443 162.955C269.233 162.955 269.033 162.985 268.843 163.045C268.653 163.095 268.483 163.175 268.333 163.285C268.193 163.395 268.078 163.535 267.988 163.705C267.898 163.875 267.853 164.07 267.853 164.29V169.525H266.218V164.77C266.218 163.56 265.743 162.955 264.793 162.955C264.593 162.955 264.393 162.985 264.193 163.045C264.003 163.095 263.833 163.175 263.683 163.285C263.533 163.395 263.413 163.535 263.323 163.705C263.233 163.875 263.188 164.07 263.188 164.29V169.525H261.553ZM287.295 171.34H283.95C283.05 171.34 282.24 171.19 281.52 170.89C280.8 170.6 280.185 170.185 279.675 169.645C279.175 169.105 278.785 168.46 278.505 167.71C278.235 166.95 278.1 166.11 278.1 165.19C278.1 164.27 278.24 163.425 278.52 162.655C278.8 161.885 279.195 161.225 279.705 160.675C280.225 160.115 280.85 159.68 281.58 159.37C282.32 159.06 283.14 158.905 284.04 158.905C284.81 158.905 285.535 159.025 286.215 159.265C286.905 159.495 287.505 159.85 288.015 160.33C288.525 160.8 288.93 161.39 289.23 162.1C289.53 162.81 289.68 163.645 289.68 164.605C289.68 165.155 289.625 165.665 289.515 166.135C289.405 166.595 289.235 166.995 289.005 167.335C288.785 167.675 288.505 167.94 288.165 168.13C287.825 168.32 287.43 168.415 286.98 168.415C286.47 168.415 286.075 168.295 285.795 168.055C285.515 167.805 285.355 167.48 285.315 167.08H285.24C285.09 167.49 284.865 167.815 284.565 168.055C284.275 168.295 283.9 168.415 283.44 168.415C283.1 168.415 282.78 168.35 282.48 168.22C282.18 168.08 281.915 167.88 281.685 167.62C281.465 167.35 281.29 167.015 281.16 166.615C281.03 166.205 280.965 165.73 280.965 165.19C280.965 164.65 281.03 164.18 281.16 163.78C281.29 163.37 281.465 163.035 281.685 162.775C281.915 162.505 282.18 162.305 282.48 162.175C282.78 162.035 283.1 161.965 283.44 161.965C283.9 161.965 284.26 162.08 284.52 162.31C284.78 162.53 284.965 162.8 285.075 163.12H285.15V162.1H286.455V166.45C286.455 166.78 286.515 167.01 286.635 167.14C286.765 167.27 286.955 167.335 287.205 167.335C287.625 167.335 287.945 167.12 288.165 166.69C288.395 166.25 288.51 165.625 288.51 164.815V164.23C288.51 163.58 288.395 162.995 288.165 162.475C287.945 161.945 287.635 161.5 287.235 161.14C286.835 160.77 286.36 160.485 285.81 160.285C285.26 160.085 284.665 159.985 284.025 159.985C283.315 159.985 282.665 160.11 282.075 160.36C281.495 160.6 280.995 160.935 280.575 161.365C280.165 161.785 279.845 162.29 279.615 162.88C279.385 163.46 279.27 164.095 279.27 164.785V165.535C279.27 166.235 279.38 166.875 279.6 167.455C279.83 168.025 280.15 168.52 280.56 168.94C280.97 169.35 281.46 169.67 282.03 169.9C282.61 170.13 283.255 170.245 283.965 170.245H287.295V171.34ZM283.83 167.26C284.25 167.26 284.575 167.145 284.805 166.915C285.035 166.685 285.15 166.39 285.15 166.03V164.23C285.15 163.91 285.035 163.645 284.805 163.435C284.575 163.215 284.25 163.105 283.83 163.105C283.37 163.105 283.02 163.245 282.78 163.525C282.54 163.795 282.42 164.155 282.42 164.605V165.76C282.42 166.21 282.54 166.575 282.78 166.855C283.02 167.125 283.37 167.26 283.83 167.26ZM298.718 169.525H291.608V167.905L294.953 164.92C295.483 164.44 295.888 163.985 296.168 163.555C296.458 163.115 296.603 162.655 296.603 162.175V161.98C296.603 161.47 296.448 161.07 296.138 160.78C295.838 160.49 295.428 160.345 294.908 160.345C294.618 160.345 294.363 160.39 294.143 160.48C293.933 160.56 293.748 160.675 293.588 160.825C293.428 160.975 293.293 161.15 293.183 161.35C293.083 161.55 293.003 161.765 292.943 161.995L291.458 161.425C291.568 161.095 291.718 160.78 291.908 160.48C292.098 160.17 292.338 159.895 292.628 159.655C292.918 159.415 293.258 159.225 293.648 159.085C294.048 158.945 294.513 158.875 295.043 158.875C295.573 158.875 296.048 158.955 296.468 159.115C296.888 159.265 297.238 159.48 297.518 159.76C297.808 160.03 298.028 160.355 298.178 160.735C298.328 161.115 298.403 161.53 298.403 161.98C298.403 162.4 298.338 162.79 298.208 163.15C298.078 163.51 297.898 163.85 297.668 164.17C297.438 164.49 297.168 164.795 296.858 165.085C296.558 165.375 296.238 165.67 295.898 165.97L293.438 168.085H298.718V169.525ZM304.097 169.705C303.447 169.705 302.882 169.585 302.402 169.345C301.922 169.095 301.527 168.74 301.217 168.28C300.907 167.82 300.677 167.255 300.527 166.585C300.377 165.915 300.302 165.15 300.302 164.29C300.302 163.44 300.377 162.68 300.527 162.01C300.677 161.33 300.907 160.76 301.217 160.3C301.527 159.84 301.922 159.49 302.402 159.25C302.882 159 303.447 158.875 304.097 158.875C305.397 158.875 306.352 159.35 306.962 160.3C307.582 161.25 307.892 162.58 307.892 164.29C307.892 166 307.582 167.33 306.962 168.28C306.352 169.23 305.397 169.705 304.097 169.705ZM304.097 168.265C304.457 168.265 304.762 168.195 305.012 168.055C305.272 167.905 305.482 167.695 305.642 167.425C305.802 167.155 305.917 166.835 305.987 166.465C306.057 166.085 306.092 165.665 306.092 165.205V163.375C306.092 162.915 306.057 162.5 305.987 162.13C305.917 161.75 305.802 161.425 305.642 161.155C305.482 160.885 305.272 160.68 305.012 160.54C304.762 160.39 304.457 160.315 304.097 160.315C303.737 160.315 303.427 160.39 303.167 160.54C302.917 160.68 302.712 160.885 302.552 161.155C302.392 161.425 302.277 161.75 302.207 162.13C302.137 162.5 302.102 162.915 302.102 163.375V165.205C302.102 165.665 302.137 166.085 302.207 166.465C302.277 166.835 302.392 167.155 302.552 167.425C302.712 167.695 302.917 167.905 303.167 168.055C303.427 168.195 303.737 168.265 304.097 168.265ZM316.706 169.525H309.596V167.905L312.941 164.92C313.471 164.44 313.876 163.985 314.156 163.555C314.446 163.115 314.591 162.655 314.591 162.175V161.98C314.591 161.47 314.436 161.07 314.126 160.78C313.826 160.49 313.416 160.345 312.896 160.345C312.606 160.345 312.351 160.39 312.131 160.48C311.921 160.56 311.736 160.675 311.576 160.825C311.416 160.975 311.281 161.15 311.171 161.35C311.071 161.55 310.991 161.765 310.931 161.995L309.446 161.425C309.556 161.095 309.706 160.78 309.896 160.48C310.086 160.17 310.326 159.895 310.616 159.655C310.906 159.415 311.246 159.225 311.636 159.085C312.036 158.945 312.501 158.875 313.031 158.875C313.561 158.875 314.036 158.955 314.456 159.115C314.876 159.265 315.226 159.48 315.506 159.76C315.796 160.03 316.016 160.355 316.166 160.735C316.316 161.115 316.391 161.53 316.391 161.98C316.391 162.4 316.326 162.79 316.196 163.15C316.066 163.51 315.886 163.85 315.656 164.17C315.426 164.49 315.156 164.795 314.846 165.085C314.546 165.375 314.226 165.67 313.886 165.97L311.426 168.085H316.706V169.525ZM322.085 169.705C321.435 169.705 320.87 169.585 320.39 169.345C319.91 169.095 319.515 168.74 319.205 168.28C318.895 167.82 318.665 167.255 318.515 166.585C318.365 165.915 318.29 165.15 318.29 164.29C318.29 163.44 318.365 162.68 318.515 162.01C318.665 161.33 318.895 160.76 319.205 160.3C319.515 159.84 319.91 159.49 320.39 159.25C320.87 159 321.435 158.875 322.085 158.875C323.385 158.875 324.34 159.35 324.95 160.3C325.57 161.25 325.88 162.58 325.88 164.29C325.88 166 325.57 167.33 324.95 168.28C324.34 169.23 323.385 169.705 322.085 169.705ZM322.085 168.265C322.445 168.265 322.75 168.195 323 168.055C323.26 167.905 323.47 167.695 323.63 167.425C323.79 167.155 323.905 166.835 323.975 166.465C324.045 166.085 324.08 165.665 324.08 165.205V163.375C324.08 162.915 324.045 162.5 323.975 162.13C323.905 161.75 323.79 161.425 323.63 161.155C323.47 160.885 323.26 160.68 323 160.54C322.75 160.39 322.445 160.315 322.085 160.315C321.725 160.315 321.415 160.39 321.155 160.54C320.905 160.68 320.7 160.885 320.54 161.155C320.38 161.425 320.265 161.75 320.195 162.13C320.125 162.5 320.09 162.915 320.09 163.375V165.205C320.09 165.665 320.125 166.085 320.195 166.465C320.265 166.835 320.38 167.155 320.54 167.425C320.7 167.695 320.905 167.905 321.155 168.055C321.415 168.195 321.725 168.265 322.085 168.265ZM328.754 169.705C328.384 169.705 328.109 169.61 327.929 169.42C327.749 169.22 327.659 168.975 327.659 168.685V168.46C327.659 168.17 327.749 167.93 327.929 167.74C328.109 167.54 328.384 167.44 328.754 167.44C329.124 167.44 329.399 167.54 329.579 167.74C329.759 167.93 329.849 168.17 329.849 168.46V168.685C329.849 168.975 329.759 169.22 329.579 169.42C329.399 169.61 329.124 169.705 328.754 169.705ZM335.645 158.425H337.28V163.015H337.355C337.525 162.545 337.8 162.185 338.18 161.935C338.57 161.675 339.025 161.545 339.545 161.545C340.535 161.545 341.3 161.905 341.84 162.625C342.38 163.335 342.65 164.335 342.65 165.625C342.65 166.915 342.38 167.92 341.84 168.64C341.3 169.35 340.535 169.705 339.545 169.705C339.025 169.705 338.57 169.575 338.18 169.315C337.8 169.055 337.525 168.695 337.355 168.235H337.28V169.525H335.645V158.425ZM339.05 168.295C339.62 168.295 340.075 168.115 340.415 167.755C340.755 167.385 340.925 166.9 340.925 166.3V164.95C340.925 164.35 340.755 163.87 340.415 163.51C340.075 163.14 339.62 162.955 339.05 162.955C338.55 162.955 338.13 163.08 337.79 163.33C337.45 163.57 337.28 163.89 337.28 164.29V166.96C337.28 167.36 337.45 167.685 337.79 167.935C338.13 168.175 338.55 168.295 339.05 168.295ZM349.204 161.725H350.779L347.494 171.07C347.404 171.33 347.299 171.55 347.179 171.73C347.069 171.92 346.934 172.07 346.774 172.18C346.624 172.3 346.439 172.385 346.219 172.435C345.999 172.495 345.739 172.525 345.439 172.525H344.494V171.19H345.814L346.264 169.87L343.429 161.725H345.064L346.624 166.315L347.074 168.01H347.149L347.644 166.315L349.204 161.725ZM355.789 169.525V159.055H362.494V160.555H357.484V163.465H362.029V164.965H357.484V168.025H362.494V169.525H355.789ZM371.416 167.935H371.356C371.246 168.445 370.946 168.87 370.456 169.21C369.976 169.54 369.336 169.705 368.536 169.705C367.916 169.705 367.341 169.59 366.811 169.36C366.281 169.12 365.821 168.775 365.431 168.325C365.051 167.865 364.751 167.3 364.531 166.63C364.321 165.95 364.216 165.17 364.216 164.29C364.216 163.42 364.326 162.65 364.546 161.98C364.766 161.3 365.076 160.73 365.476 160.27C365.876 159.81 366.356 159.465 366.916 159.235C367.476 158.995 368.101 158.875 368.791 158.875C369.731 158.875 370.526 159.085 371.176 159.505C371.826 159.915 372.331 160.49 372.691 161.23L371.311 162.04C371.111 161.55 370.801 161.155 370.381 160.855C369.961 160.545 369.431 160.39 368.791 160.39C367.961 160.39 367.291 160.655 366.781 161.185C366.281 161.715 366.031 162.465 366.031 163.435V165.145C366.031 166.115 366.281 166.865 366.781 167.395C367.291 167.925 367.961 168.19 368.791 168.19C369.121 168.19 369.436 168.15 369.736 168.07C370.036 167.98 370.296 167.855 370.516 167.695C370.746 167.525 370.926 167.32 371.056 167.08C371.196 166.83 371.266 166.54 371.266 166.21V165.4H369.106V163.945H372.901V169.525H371.416V167.935ZM382.687 160.555V169.525H380.992V160.555H377.872V159.055H385.807V160.555H382.687ZM387.459 169.525V159.055H394.164V160.555H389.154V163.465H393.699V164.965H389.154V168.025H394.164V169.525H387.459ZM400.281 169.705C398.911 169.705 397.836 169.245 397.056 168.325C396.276 167.395 395.886 166.05 395.886 164.29C395.886 163.41 395.986 162.635 396.186 161.965C396.386 161.295 396.676 160.73 397.056 160.27C397.436 159.81 397.896 159.465 398.436 159.235C398.986 158.995 399.601 158.875 400.281 158.875C401.191 158.875 401.951 159.075 402.561 159.475C403.181 159.875 403.666 160.465 404.016 161.245L402.591 162.025C402.411 161.525 402.131 161.13 401.751 160.84C401.381 160.54 400.891 160.39 400.281 160.39C399.471 160.39 398.836 160.665 398.376 161.215C397.916 161.765 397.686 162.525 397.686 163.495V165.085C397.686 166.055 397.916 166.815 398.376 167.365C398.836 167.915 399.471 168.19 400.281 168.19C400.911 168.19 401.421 168.03 401.811 167.71C402.211 167.38 402.506 166.96 402.696 166.45L404.061 167.275C403.711 168.035 403.221 168.63 402.591 169.06C401.961 169.49 401.191 169.705 400.281 169.705ZM412.292 164.965H407.552V169.525H405.857V159.055H407.552V163.465H412.292V159.055H413.987V169.525H412.292V164.965ZM426.845 167.935H426.785C426.675 168.445 426.375 168.87 425.885 169.21C425.405 169.54 424.765 169.705 423.965 169.705C423.345 169.705 422.77 169.59 422.24 169.36C421.71 169.12 421.25 168.775 420.86 168.325C420.48 167.865 420.18 167.3 419.96 166.63C419.75 165.95 419.645 165.17 419.645 164.29C419.645 163.42 419.755 162.65 419.975 161.98C420.195 161.3 420.505 160.73 420.905 160.27C421.305 159.81 421.785 159.465 422.345 159.235C422.905 158.995 423.53 158.875 424.22 158.875C425.16 158.875 425.955 159.085 426.605 159.505C427.255 159.915 427.76 160.49 428.12 161.23L426.74 162.04C426.54 161.55 426.23 161.155 425.81 160.855C425.39 160.545 424.86 160.39 424.22 160.39C423.39 160.39 422.72 160.655 422.21 161.185C421.71 161.715 421.46 162.465 421.46 163.435V165.145C421.46 166.115 421.71 166.865 422.21 167.395C422.72 167.925 423.39 168.19 424.22 168.19C424.55 168.19 424.865 168.15 425.165 168.07C425.465 167.98 425.725 167.855 425.945 167.695C426.175 167.525 426.355 167.32 426.485 167.08C426.625 166.83 426.695 166.54 426.695 166.21V165.4H424.535V163.945H428.33V169.525H426.845V167.935ZM432.381 169.525H430.686V159.055H435.201C436.141 159.055 436.881 159.34 437.421 159.91C437.961 160.47 438.231 161.235 438.231 162.205C438.231 162.955 438.056 163.58 437.706 164.08C437.366 164.57 436.861 164.915 436.191 165.115L438.456 169.525H436.566L434.466 165.295H432.381V169.525ZM435.081 163.87C435.511 163.87 435.846 163.76 436.086 163.54C436.326 163.31 436.446 162.985 436.446 162.565V161.845C436.446 161.425 436.326 161.105 436.086 160.885C435.846 160.655 435.511 160.54 435.081 160.54H432.381V163.87H435.081ZM444.419 169.705C443.739 169.705 443.119 169.59 442.559 169.36C442.009 169.12 441.534 168.775 441.134 168.325C440.744 167.865 440.439 167.3 440.219 166.63C440.009 165.95 439.904 165.17 439.904 164.29C439.904 163.41 440.009 162.635 440.219 161.965C440.439 161.285 440.744 160.72 441.134 160.27C441.534 159.81 442.009 159.465 442.559 159.235C443.119 158.995 443.739 158.875 444.419 158.875C445.099 158.875 445.714 158.995 446.264 159.235C446.824 159.465 447.299 159.81 447.689 160.27C448.089 160.72 448.394 161.285 448.604 161.965C448.824 162.635 448.934 163.41 448.934 164.29C448.934 165.17 448.824 165.95 448.604 166.63C448.394 167.3 448.089 167.865 447.689 168.325C447.299 168.775 446.824 169.12 446.264 169.36C445.714 169.59 445.099 169.705 444.419 169.705ZM444.419 168.19C444.819 168.19 445.184 168.12 445.514 167.98C445.854 167.84 446.139 167.64 446.369 167.38C446.609 167.11 446.794 166.785 446.924 166.405C447.054 166.025 447.119 165.595 447.119 165.115V163.465C447.119 162.985 447.054 162.555 446.924 162.175C446.794 161.795 446.609 161.475 446.369 161.215C446.139 160.945 445.854 160.74 445.514 160.6C445.184 160.46 444.819 160.39 444.419 160.39C444.009 160.39 443.639 160.46 443.309 160.6C442.979 160.74 442.694 160.945 442.454 161.215C442.224 161.475 442.044 161.795 441.914 162.175C441.784 162.555 441.719 162.985 441.719 163.465V165.115C441.719 165.595 441.784 166.025 441.914 166.405C442.044 166.785 442.224 167.11 442.454 167.38C442.694 167.64 442.979 167.84 443.309 167.98C443.639 168.12 444.009 168.19 444.419 168.19ZM452.653 159.055V165.505C452.653 166.395 452.823 167.065 453.163 167.515C453.503 167.965 454.083 168.19 454.903 168.19C455.723 168.19 456.303 167.965 456.643 167.515C456.983 167.065 457.153 166.395 457.153 165.505V159.055H458.818V165.235C458.818 166.005 458.748 166.67 458.608 167.23C458.468 167.79 458.243 168.255 457.933 168.625C457.623 168.985 457.218 169.255 456.718 169.435C456.228 169.615 455.623 169.705 454.903 169.705C454.183 169.705 453.573 169.615 453.073 169.435C452.583 169.255 452.183 168.985 451.873 168.625C451.563 168.255 451.338 167.79 451.198 167.23C451.058 166.67 450.988 166.005 450.988 165.235V159.055H452.653ZM461.331 169.525V159.055H465.831C466.801 159.055 467.551 159.34 468.081 159.91C468.611 160.48 468.876 161.245 468.876 162.205C468.876 163.165 468.611 163.93 468.081 164.5C467.551 165.07 466.801 165.355 465.831 165.355H463.026V169.525H461.331ZM463.026 163.87H465.726C466.156 163.87 466.491 163.76 466.731 163.54C466.971 163.31 467.091 162.985 467.091 162.565V161.845C467.091 161.425 466.971 161.105 466.731 160.885C466.491 160.655 466.156 160.54 465.726 160.54H463.026V163.87Z" fill="black"/>
<path fill-rule="evenodd" clip-rule="evenodd" d="M384.877 64.0431L374.627 53.9493C373.123 52.4682 370.67 52.4682 369.166 53.9493L345.519 77.2128L344.339 78.3749C344.062 78.6483 343.738 78.8533 343.391 79.0356C340.406 81.5648 334.598 84.3445 330.202 85.0737C316.828 87.3066 309.563 79.9698 307.133 78.0787L325.389 96.0561C326.107 96.7624 327.101 97.1725 328.12 97.1725H355.121C356.14 97.1725 357.134 96.7624 357.852 96.0561L384.877 69.4203C386.381 67.9393 386.381 65.5241 384.877 64.0431Z" fill="url(#paint0_linear_820_75)"/>
<path fill-rule="evenodd" clip-rule="evenodd" d="M330.595 85.3244C334.968 84.5952 340.382 81.5876 343.367 79.0585C341.909 79.8104 340.081 79.6053 338.855 78.3977L306.392 46.4075C304.888 44.9264 304.888 42.5112 306.392 41.0302L331.219 16.5818C332.723 15.1008 332.723 12.6856 331.219 11.2046L320.969 1.11077C319.465 -0.370257 317.013 -0.370257 315.509 1.11077L289.756 26.4478C289.039 27.1541 288.622 28.1339 288.622 29.1364V58.2785C288.622 59.281 289.039 60.2608 289.756 60.9671L307.11 78.0559C309.562 79.9927 317.244 87.5345 330.595 85.3244Z" fill="url(#paint1_linear_820_75)"/>
<path fill-rule="evenodd" clip-rule="evenodd" d="M342.396 56.8202L329.068 43.696C328.328 42.9669 328.582 41.7137 329.554 41.3036L351.466 32.3946C352.669 31.8934 353.895 33.0782 353.409 34.263L344.825 56.319C344.432 57.2987 343.159 57.5721 342.396 56.8202Z" fill="url(#paint2_linear_820_75)"/>
<path d="M435.063 114.763C433.328 114.763 431.94 115.97 431.94 117.725C431.94 119.479 433.305 120.687 435.063 120.687C436.822 120.687 438.187 119.479 438.187 117.725C438.164 115.97 436.799 114.763 435.063 114.763ZM435.063 120.117C433.652 120.117 432.587 119.092 432.587 117.725C432.587 116.335 433.629 115.309 435.063 115.309C436.475 115.309 437.539 116.358 437.539 117.725C437.539 119.069 436.451 120.117 435.063 120.117Z" fill="black"/>
<path d="M435.573 117.93C435.989 117.907 436.313 117.702 436.313 117.132C436.313 116.403 435.827 116.198 434.994 116.198H433.814V119.251H434.601V117.953H434.74L435.457 119.251H436.359L435.573 117.93ZM435.064 117.429H434.624V116.722H434.994C435.226 116.722 435.48 116.745 435.48 117.041C435.503 117.36 435.341 117.429 435.064 117.429Z" fill="black"/>
<path d="M326.986 131.282C326.986 135.406 325.597 138.846 322.844 141.581C320.068 144.315 316.597 145.705 312.409 145.705C308.383 145.705 304.958 144.36 302.136 141.649C299.313 138.915 297.901 135.565 297.901 131.601C297.901 127.636 299.336 124.31 302.205 121.644C305.005 119.046 308.452 117.747 312.501 117.747C315.532 117.747 318.332 118.613 320.924 120.345C323.608 122.145 325.343 124.446 326.176 127.249H318.355C317.036 124.925 315.023 123.763 312.339 123.763C310.141 123.763 308.36 124.537 306.925 126.064C305.56 127.545 304.866 129.391 304.866 131.555C304.866 133.834 305.537 135.725 306.856 137.229C308.267 138.824 310.095 139.621 312.363 139.621C313.936 139.621 315.301 139.279 316.435 138.573C317.661 137.821 318.471 136.727 318.887 135.292H310.743V129.869H326.939C326.963 130.074 326.963 130.325 326.986 130.575V131.282Z" fill="black"/>
<path d="M280.062 131.282C280.062 135.406 278.674 138.846 275.92 141.581C273.144 144.315 269.673 145.705 265.485 145.705C261.459 145.705 258.035 144.36 255.212 141.649C252.389 138.915 250.978 135.565 250.978 131.601C250.978 127.636 252.412 124.31 255.281 121.644C258.081 119.046 261.528 117.747 265.578 117.747C268.609 117.747 271.408 118.613 274 120.345C276.684 122.145 278.419 124.446 279.252 127.249H271.431C270.113 124.925 268.1 123.763 265.416 123.763C263.218 123.763 261.436 124.537 260.001 126.064C258.636 127.545 257.942 129.391 257.942 131.555C257.942 133.834 258.613 135.725 259.932 137.229C261.343 138.824 263.171 139.621 265.439 139.621C267.012 139.621 268.377 139.279 269.511 138.573C270.737 137.821 271.547 136.727 271.964 135.292H263.819V129.869H280.016C280.039 130.074 280.039 130.325 280.062 130.575V131.282Z" fill="black"/>
<path d="M343.668 145.158L337.351 136.477H337.282V145.158H330.595V118.271H339.225C340.128 118.271 340.868 118.294 341.424 118.317C342.233 118.363 342.974 118.431 343.622 118.545C345.264 118.818 346.583 119.365 347.648 120.185C349.892 121.963 351.026 124.401 351.026 127.522C351.026 129.664 350.424 131.51 349.244 133.036C348.018 134.677 346.329 135.656 344.246 135.975L351.65 145.135H343.668V145.158ZM342.974 125.13C342.187 124.583 341.146 124.287 339.827 124.287H337.282V131.783H339.758C342.812 131.783 344.339 130.507 344.339 127.932C344.316 126.702 343.876 125.768 342.974 125.13Z" fill="black"/>
<path d="M378.097 141.695C375.297 144.36 371.896 145.682 367.87 145.682C363.96 145.682 360.605 144.383 357.805 141.763C354.936 139.12 353.524 135.884 353.524 132.057C353.524 130.029 353.871 128.115 354.589 126.315C354.959 125.358 355.561 124.355 356.37 123.307C359.216 119.639 363.057 117.793 367.916 117.793C371.919 117.793 375.32 119.137 378.12 121.803C380.92 124.492 382.331 127.796 382.331 131.738C382.308 135.657 380.897 138.983 378.097 141.695ZM373.307 126.201C371.873 124.583 370.091 123.786 367.916 123.786C365.718 123.786 363.936 124.56 362.502 126.132C361.137 127.636 360.443 129.459 360.443 131.624C360.443 133.834 361.137 135.702 362.525 137.229C363.96 138.824 365.764 139.621 367.986 139.621C370.114 139.621 371.873 138.824 373.307 137.206C374.649 135.679 375.32 133.857 375.32 131.715C375.343 129.573 374.672 127.727 373.307 126.201Z" fill="black"/>
<path d="M406.95 134.517C406.95 136.34 406.788 137.844 406.487 138.96C406.071 140.419 405.307 141.672 404.243 142.766C402.299 144.702 399.754 145.682 396.607 145.682C395.08 145.682 393.646 145.454 392.35 145.021C390.892 144.52 389.689 143.791 388.74 142.811C387.584 141.626 386.82 140.327 386.427 138.983C386.265 138.368 386.149 137.684 386.056 136.91C386.01 136.295 385.987 135.497 385.987 134.54V118.294H392.952V134.54C392.952 135.246 392.998 135.862 393.067 136.363C393.16 137.024 393.322 137.571 393.553 138.003C394.108 139.097 395.08 139.644 396.515 139.644C397.972 139.644 398.967 139.097 399.476 138.026C399.685 137.593 399.824 137.046 399.916 136.386C399.962 135.907 399.985 135.292 399.985 134.495V118.249H406.95V134.517Z" fill="black"/>
<path d="M431.662 131.191C431.13 132.535 430.412 133.606 429.51 134.426C428.422 135.36 427.173 135.998 425.785 136.34C424.72 136.613 423.309 136.75 421.55 136.75H418.519V145.181H411.833V118.271H420.764C421.62 118.271 422.36 118.294 422.939 118.317C423.749 118.363 424.489 118.454 425.183 118.568C426.849 118.841 428.168 119.411 429.186 120.231C431.315 122.008 432.402 124.378 432.402 127.34C432.379 128.661 432.148 129.937 431.662 131.191ZM424.258 124.834C423.563 124.469 422.499 124.31 421.088 124.31H418.519V130.712H421.342C422.684 130.712 423.702 130.507 424.396 130.12C425.276 129.618 425.715 128.73 425.715 127.499C425.692 126.201 425.206 125.335 424.258 124.834Z" fill="black"/>
<path fill-rule="evenodd" clip-rule="evenodd" d="M285.453 134.608V129.299C285.453 129.003 285.753 128.798 286.031 128.912L292.278 131.464C292.625 131.601 292.625 132.079 292.278 132.239L286.031 134.973C285.753 135.132 285.453 134.927 285.453 134.608Z" fill="black"/>
<path d="M232.745 145.158V117.975H248.085V124.082H239.501V128.32H247.807V134.426H239.501V139.097H248.085V145.203H232.745V145.158Z" fill="black"/>
<defs>
<linearGradient id="paint0_linear_820_75" x1="355.961" y1="47.713" x2="340.996" y2="88.8194" gradientUnits="userSpaceOnUse">
<stop stop-color="#0CAC4C"/>
<stop offset="1" stop-color="#88C440"/>
</linearGradient>
<linearGradient id="paint1_linear_820_75" x1="316.007" y1="82.2349" x2="316.007" y2="3.9785" gradientUnits="userSpaceOnUse">
<stop stop-color="#0CAC4C"/>
<stop offset="1" stop-color="#8DC63F"/>
</linearGradient>
<linearGradient id="paint2_linear_820_75" x1="343.612" y1="30.0198" x2="336.75" y2="52.6672" gradientUnits="userSpaceOnUse">
<stop stop-color="#0CAC4C"/>
<stop offset="1" stop-color="#88C440"/>
</linearGradient>
</defs>
</svg>
