<svg width="61" height="58" viewBox="0 0 61 58" fill="none" xmlns="http://www.w3.org/2000/svg">
<path d="M60.8951 28.7781C60.8951 12.8895 47.403 0 30.748 0C14.093 0 0.600952 12.8794 0.600952 28.7781C0.600952 43.1421 11.6237 55.0485 26.0405 57.2051V37.0936H18.3908V28.7781H26.0405V22.4387C26.0405 15.2266 30.5378 11.2444 37.431 11.2444C40.7305 11.2444 44.177 11.8061 44.177 11.8061V18.8878H40.3732C36.6324 18.8878 35.4555 21.1046 35.4555 23.3816V28.7781H43.8198L42.4853 37.0936H35.466V57.2051C49.8723 55.0385 60.8951 43.1421 60.8951 28.7781Z" fill="#0085FF"/>
<path d="M43.0074 36.7937L44.3419 28.4783H35.9776V23.0817C35.9776 20.8048 37.144 18.588 40.8953 18.588H44.6991V11.5063C44.6991 11.5063 41.2525 10.9446 37.9531 10.9446C31.0704 10.9446 26.5626 14.9268 26.5626 22.1389V28.4783H18.9128V36.7937H26.5626V56.9053C28.0967 57.136 29.6729 57.2564 31.2701 57.2564C32.8673 57.2564 34.4435 57.136 35.9776 56.9053V36.7937H43.0074Z" fill="white"/>
</svg>
