<svg width="61" height="58" viewBox="0 0 61 58" fill="none" xmlns="http://www.w3.org/2000/svg">
<path d="M30.1471 57.5562C46.7968 57.5562 60.2941 44.6718 60.2941 28.7781C60.2941 12.8844 46.7968 0 30.1471 0C13.4973 0 0 12.8844 0 28.7781C0 44.6718 13.4973 57.5562 30.1471 57.5562Z" fill="white"/>
<path d="M25.1454 33.3021L24.4624 40.2634C24.4624 40.2634 24.1787 42.4 26.4063 40.2634C28.6445 38.1269 30.7776 36.4819 30.7776 36.4819L25.1454 33.3021Z" fill="#2BCCFF"/>
<path d="M20.4692 31.2155L13.1136 28.9285C13.1136 28.9285 12.231 28.5875 12.5147 27.8151C12.5777 27.6546 12.6933 27.5242 13.0401 27.2835C14.6688 26.2002 43.2082 16.4102 43.2082 16.4102C43.2082 16.4102 44.0173 16.1494 44.4901 16.3199C44.7108 16.4002 44.8474 16.4905 44.963 16.8114C45.005 16.9318 45.026 17.1826 45.026 17.4333C45.026 17.6139 45.005 17.7844 44.984 18.0452C44.8054 20.7234 39.604 40.7046 39.604 40.7046C39.604 40.7046 39.2887 41.8782 38.1749 41.9183C37.7651 41.9283 37.2712 41.8581 36.6828 41.3666C34.4971 39.5711 26.9315 34.7162 25.2607 33.653C25.1662 33.5928 25.1346 33.5126 25.1241 33.4423C25.1031 33.332 25.2292 33.1916 25.2292 33.1916C25.2292 33.1916 38.3956 22.0174 38.7528 20.8438C38.7844 20.7535 38.6793 20.7033 38.5427 20.7435C37.6705 21.0544 22.5077 30.1924 20.8264 31.2055C20.7424 31.2557 20.4692 31.2155 20.4692 31.2155Z" fill="#2BCCFF"/>
</svg>
