<svg width="61" height="58" viewBox="0 0 61 58" fill="none" xmlns="http://www.w3.org/2000/svg">
<path d="M30.694 57.5562C47.3438 57.5562 60.8411 44.6718 60.8411 28.7781C60.8411 12.8844 47.3438 0 30.694 0C14.0443 0 0.546997 12.8844 0.546997 28.7781C0.546997 44.6718 14.0443 57.5562 30.694 57.5562Z" fill="white"/>
<path d="M24.6103 45.349C39.3319 45.349 47.3809 33.7033 47.3809 23.6124C47.3809 23.2814 47.3704 22.9504 47.3599 22.6294C48.9255 21.5461 50.281 20.202 51.3528 18.6773C49.9133 19.2892 48.3791 19.6904 46.7609 19.881C48.4106 18.9381 49.6821 17.4335 50.281 15.6581C48.7364 16.5308 47.0236 17.1727 45.1952 17.5138C43.7346 16.0292 41.6541 15.0964 39.3529 15.0964C34.9291 15.0964 31.3459 18.5168 31.3459 22.7398C31.3459 23.3416 31.4194 23.9234 31.556 24.4851C24.9046 24.1641 18.9991 21.1248 15.0587 16.5007C14.3757 17.6341 13.9764 18.9381 13.9764 20.3424C13.9764 22.9905 15.3844 25.3377 17.5385 26.7019C16.2251 26.6618 14.9956 26.3207 13.9133 25.749C13.9133 25.7791 13.9133 25.8092 13.9133 25.8493C13.9133 29.5506 16.6769 32.6401 20.3336 33.3422C19.6611 33.5128 18.9571 33.6131 18.2216 33.6131C17.7067 33.6131 17.2023 33.5629 16.7189 33.4726C17.7382 36.5119 20.6909 38.7187 24.2005 38.7789C21.458 40.8251 18.0114 42.0489 14.2601 42.0489C13.6191 42.0489 12.9781 42.0088 12.3477 41.9386C15.8783 44.0851 20.0814 45.349 24.6103 45.349Z" fill="#2ACCFF"/>
</svg>
