<svg width="397" height="374" viewBox="0 0 397 374" fill="none" xmlns="http://www.w3.org/2000/svg">
<path style="mix-blend-mode:lighten" opacity="0.5" d="M189.079 373.99C293.504 373.99 378.158 325.137 378.158 264.875C378.158 204.612 293.504 155.76 189.079 155.76C84.6535 155.76 0 204.612 0 264.875C0 325.137 84.6535 373.99 189.079 373.99Z" fill="url(#paint0_radial_493_72)" fill-opacity="0.2"/>
<path opacity="0.7" d="M183.213 299.992L121.564 264.415C117.182 261.886 117.726 257.465 122.787 254.549L181.979 220.393C187.04 217.477 194.694 217.153 199.086 219.682L260.735 255.259C265.116 257.789 264.573 262.21 259.512 265.126L200.319 299.282C195.259 302.198 187.605 302.522 183.213 299.992Z" fill="#0B0244"/>
<g opacity="0.7">
<path style="mix-blend-mode:lighten" d="M142.319 270.749L165.103 283.897L148.331 293.575L148.666 294.16L165.772 284.294L189.006 297.703C189.57 298.027 190.313 298.195 191.087 298.195C191.996 298.195 192.958 297.965 193.722 297.526L216.694 284.273L233.852 294.171L234.187 293.585L217.363 283.876L239.781 270.937C240.576 270.477 241.025 269.85 241.025 269.202C241.025 268.648 240.691 268.146 240.095 267.801L193.408 240.857C192.174 240.146 190.104 240.22 188.692 241.035L142.633 267.613C141.838 268.073 141.388 268.7 141.388 269.348C141.388 269.902 141.723 270.404 142.319 270.749ZM142.988 268.24L189.048 241.662C189.696 241.286 190.543 241.097 191.338 241.097C191.986 241.097 192.592 241.223 193.042 241.484L239.729 268.428C239.99 268.575 240.304 268.836 240.304 269.202C240.304 269.568 239.969 269.986 239.415 270.31L193.356 296.888C192.195 297.557 190.365 297.641 189.361 297.066L142.675 270.122C142.413 269.975 142.099 269.714 142.099 269.348C142.099 268.982 142.434 268.564 142.988 268.24Z" fill="url(#paint1_linear_493_72)"/>
<path style="mix-blend-mode:lighten" d="M310.371 309.514L272.875 287.879C270.01 286.227 265.012 286.416 261.739 288.307L225.738 309.085C223.888 310.151 222.821 311.625 222.821 313.119C222.821 314.405 223.595 315.555 224.986 316.37L244.288 327.511L194.171 356.504C192.258 357.612 189.895 357.612 187.992 356.504C166.682 344.161 141.493 329.591 137.791 327.553L156.424 316.798C158.275 315.732 159.342 314.259 159.342 312.764C159.342 311.479 158.568 310.329 157.177 309.514L119.681 287.879C116.816 286.227 111.818 286.416 108.546 288.307L72.545 309.085C70.6942 310.151 69.6277 311.625 69.6277 313.119C69.6277 314.405 70.4015 315.555 71.7921 316.37L109.288 338.005C110.553 338.736 112.278 339.133 114.171 339.133C116.43 339.133 118.709 338.569 120.424 337.576L137.112 327.95C137.896 328.306 163.733 343.231 187.657 357.089C188.713 357.706 189.895 358.009 191.087 358.009C192.279 358.009 193.46 357.706 194.516 357.089L244.925 327.929L244.884 327.856L262.481 338.015C263.747 338.747 265.472 339.144 267.364 339.144C269.623 339.144 271.902 338.58 273.617 337.587L309.618 316.809C311.469 315.743 312.535 314.269 312.535 312.775C312.535 311.489 311.761 310.339 310.371 309.524V309.514ZM120.068 336.949C118.458 337.879 116.304 338.412 114.171 338.412C112.404 338.412 110.804 338.047 109.643 337.378L72.1476 315.743C70.987 315.074 70.3387 314.133 70.3387 313.119C70.3387 311.886 71.2693 310.653 72.89 309.712L108.891 288.934C110.574 287.962 112.738 287.471 114.788 287.471C116.482 287.471 118.103 287.816 119.315 288.506L156.811 310.141C157.972 310.81 158.62 311.75 158.62 312.764C158.62 313.997 157.69 315.231 156.069 316.171L120.068 336.949ZM309.262 316.171L273.262 336.949C271.651 337.879 269.497 338.412 267.364 338.412C265.597 338.412 263.998 338.047 262.837 337.378L225.341 315.743C224.18 315.074 223.532 314.133 223.532 313.119C223.532 311.886 224.463 310.653 226.083 309.712L262.084 288.934C263.767 287.962 265.932 287.471 267.981 287.471C269.675 287.471 271.296 287.816 272.509 288.506L310.005 310.141C311.165 310.81 311.814 311.75 311.814 312.764C311.814 313.997 310.883 315.231 309.262 316.171Z" fill="url(#paint2_linear_493_72)"/>
</g>
<path opacity="0.7" d="M303.94 158.342C303.679 154.569 301.096 152.499 297.175 152.071C297.091 152.071 296.997 152.05 296.903 152.05C295.356 151.914 293.609 152.029 291.717 152.384C286.551 153.377 283.143 155.959 282.662 158.906C282.505 159.868 282.139 160.84 281.219 161.801C280.936 162.094 280.623 162.355 280.267 162.575C280.236 162.596 280.215 162.606 280.184 162.627C279.096 163.306 277.726 163.662 276.283 163.818C272.111 164.268 268.535 165.658 266.632 167.685C265.597 168.783 264.573 169.943 263.59 171.155C247.079 191.379 228.551 201.852 222.371 206.252C221.504 206.868 221.545 207.6 222.141 208.164C222.183 208.206 222.236 208.248 222.277 208.29C223.03 208.907 224.442 209.293 226.01 209.063C229.576 208.53 235.818 207.443 243.294 205.499C243.294 205.499 243.357 205.478 243.388 205.478C243.451 205.458 243.514 205.447 243.577 205.426C243.587 205.426 243.597 205.426 243.618 205.426C253.531 202.813 265.566 198.695 276.419 192.309C276.566 192.226 276.702 192.142 276.838 192.048H276.848C276.911 192.006 276.984 191.975 277.047 191.933H277.015C279.284 190.386 280.288 188.421 279.964 186.425C279.828 185.589 280.131 184.627 281.093 183.52C283.289 180.99 287.357 179.454 291.497 178.064C293.944 177.249 295.857 176.047 296.914 174.604C296.914 174.604 296.924 174.594 296.934 174.583C297.363 174.009 297.76 173.434 298.147 172.88C298.179 172.838 298.21 172.796 298.241 172.744C302.466 166.609 304.139 161.853 303.94 158.457C303.94 158.425 303.94 158.394 303.94 158.373V158.342Z" fill="#0B0244"/>
<path opacity="0.7" d="M187.469 187.063C186.569 186.404 185.21 186.101 184.196 186.352C180.735 187.199 172.851 190.031 168.721 198.863C163.88 209.231 171.429 216.348 173.008 217.686C171.063 220.435 169.515 222.232 168.878 222.943C166.598 221.699 164.172 220.361 161.652 218.94C157.564 216.641 153.225 214.091 148.676 211.352C147.547 210.662 146.407 209.962 145.257 209.251C144.682 208.896 144.096 208.541 143.511 208.185C142.936 207.82 142.361 207.454 141.775 207.088C140.615 206.346 139.433 205.604 138.251 204.851C137.112 204.109 135.962 203.357 134.801 202.604C135.92 201.507 138.105 199.322 140.761 196.386C143.208 196.5 156.205 196.636 161.412 187.282C165.824 179.36 161.412 173.894 159.101 171.772C158.432 171.155 157.261 170.8 156.299 170.936C153.026 171.375 145.403 173.131 139.977 180.165C133.578 188.463 139.057 194.995 140.175 196.176C137.582 199.04 135.449 201.183 134.32 202.291C132.061 200.827 129.845 199.302 127.565 197.765C126.352 196.96 125.192 196.114 124 195.278C122.818 194.442 121.605 193.605 120.424 192.759C116.565 189.947 112.697 187.084 108.953 184.157C109.539 183.729 110.511 183.007 111.776 182.035C113.157 180.969 114.892 179.6 116.827 178.012C118.866 178.231 131.162 179.193 137.415 171.134C142.654 164.383 139.318 159.314 137.478 157.317C136.934 156.732 135.909 156.356 134.989 156.419C131.884 156.617 124.533 157.746 118.479 163.662C111.494 170.486 115.332 176.444 116.314 177.729C112.686 180.719 109.769 182.903 108.504 183.823C107.834 183.3 107.165 182.778 106.507 182.245C100.264 177.27 94.346 172.169 88.9611 167.1C89.8394 166.609 92.4221 165.093 95.6426 162.616C96.3536 162.062 97.1169 161.446 97.8802 160.808C99.8355 160.934 109.832 161.185 114.192 154.151C117.893 148.162 114.673 143.939 112.958 142.288C112.456 141.807 111.567 141.525 110.814 141.609C108.263 141.891 102.293 143.124 97.8279 148.423C92.7044 154.506 96.385 159.47 97.3365 160.568C93.2481 164.006 89.7244 166.097 88.5742 166.755C86.3157 164.623 84.1408 162.501 82.0914 160.411C80.6693 158.958 79.2996 157.516 77.9821 156.084C77.9926 156.063 78.0135 156.042 78.0135 156.021C78.0135 155.917 77.8775 155.812 77.7102 155.781C77.2502 155.279 76.8005 154.788 76.3509 154.286C76.7692 153.544 78.5676 150.284 80.753 146.186C82.8024 146.092 92.077 145.235 94.2728 137.627C96.1758 131.063 92.0038 127.039 89.9544 125.513C89.3584 125.064 88.4383 124.865 87.7586 125.032C85.4269 125.597 80.1256 127.489 77.3338 133.404C74.0715 140.313 79.0486 145.079 80.1465 146.019C78.1808 149.698 76.5287 152.698 75.9222 153.785C71.6247 148.967 67.986 144.378 65.0164 140.219C64.4727 139.466 63.9395 138.735 63.4166 138.013C62.9043 137.292 62.4756 136.581 62.0155 135.892C61.89 135.704 61.775 135.526 61.66 135.338C62.5697 134.69 65.7693 131.826 62.2456 125.524C59.1296 119.963 54.4557 117.183 52.4481 116.19C51.8521 115.898 51.1202 115.856 50.681 116.096C49.1753 116.901 46.2476 119.315 48.7048 125.2C51.5907 132.129 59.6106 134.92 61.1686 135.411C61.2836 135.589 61.3881 135.766 61.5032 135.944C61.9528 136.634 62.3606 137.355 62.8625 138.076C63.3748 138.797 63.8872 139.539 64.4204 140.292C67.6305 144.932 71.677 150.116 76.5182 155.562C74.0087 155.154 67.8082 154.161 60.6771 153.064C59.6942 152.113 54.6335 147.723 42.5566 146.009C32.1422 144.525 26.7887 146.03 24.8543 146.814C24.2792 147.044 24.1642 147.545 24.5824 148.016C25.9835 149.636 30.2706 153.356 41.2496 155.53C53.9643 158.049 59.5583 154.307 60.6562 153.429C68.1847 154.59 74.6989 155.635 76.9051 155.99C78.2644 157.516 79.6864 159.052 81.1712 160.599C83.6598 163.212 86.3157 165.846 89.1179 168.501C87.5077 168.762 83.0533 169.452 76.8947 170.11C75.5772 169.316 68.4879 165.449 56.2228 166.107C45.7666 166.672 41.6051 169.473 40.2353 170.748C39.8275 171.124 39.9948 171.699 40.6326 172.138C42.818 173.632 48.8094 176.851 60.1752 176.935C73.35 177.029 76.4973 171.688 77.041 170.486C83.367 169.807 87.9259 169.096 89.4943 168.846C94.3983 173.476 99.7205 178.137 105.315 182.683C106.527 183.687 107.772 184.68 109.016 185.662C107.563 185.986 103.15 186.969 97.0228 188.16C95.2871 187.334 86.598 183.645 73.6846 185.746C62.5906 187.543 58.8891 191.275 57.7703 192.916C57.4357 193.396 57.7703 194.055 58.5859 194.504C61.3568 196.02 68.697 199.124 80.9516 197.985C95.4125 196.636 97.1274 189.832 97.3156 188.536C103.61 187.314 108.106 186.31 109.445 186.007C112.613 188.505 115.865 190.951 119.096 193.355C120.277 194.222 121.469 195.069 122.651 195.915C123.843 196.762 124.993 197.619 126.196 198.434C128.59 200.085 130.922 201.726 133.306 203.304C133.598 203.503 133.891 203.691 134.184 203.89C133.18 204.339 130.347 205.572 125.83 207.213C123.749 206.44 113.01 202.918 99.229 206.921C87.4449 210.349 84.4335 215.251 83.6702 217.362C83.4402 217.989 84.0153 218.742 85.04 219.18C88.5428 220.696 97.5874 223.612 110.835 220.853C126.676 217.56 126.394 208.98 126.227 207.558C130.817 205.886 133.682 204.642 134.655 204.193C135.376 204.674 136.108 205.165 136.819 205.635C138.001 206.398 139.172 207.161 140.332 207.903C140.907 208.279 141.493 208.656 142.058 209.022C142.643 209.387 143.218 209.753 143.793 210.108C144.943 210.83 146.083 211.54 147.202 212.251C151.74 215.031 156.058 217.634 160.147 219.975C162.897 221.563 165.521 223.037 167.989 224.406C167.037 224.877 164.11 226.298 159.593 228.158C157.867 227.531 145.602 223.445 130.263 228.388C117.58 232.485 114.579 238.014 113.868 240.387C113.659 241.087 114.328 241.913 115.467 242.383C119.399 243.993 129.468 247.024 143.793 243.637C160.617 239.666 160.126 230.385 159.854 228.556C164.591 226.612 167.612 225.138 168.501 224.699C173.102 227.239 177.128 229.35 180.317 230.98C182.816 232.266 184.802 233.248 186.172 233.917C187.531 234.586 188.295 234.941 188.295 234.941L189.654 233.499C189.654 233.499 188.943 233.175 187.594 232.527C186.245 231.89 184.269 230.928 181.781 229.674C178.466 228.012 174.231 225.828 169.369 223.204C170.007 222.504 171.575 220.685 173.552 217.884C175.789 217.811 190.574 216.871 193.941 205.081C196.733 195.299 190.501 189.31 187.437 187.042L187.469 187.063Z" fill="#0B0244"/>
<g opacity="0.7">
<path d="M165.574 221.01C165.574 221.01 158.599 240.167 132.752 242.435C112.948 244.181 104.029 236.321 100.944 232.548C100.045 231.451 100.024 229.872 100.913 228.765C103.924 224.992 112.519 216.526 131.058 213.15C155.243 208.739 165.574 221.01 165.574 221.01Z" fill="url(#paint3_linear_493_72)"/>
</g>
<g opacity="0.7">
<path d="M190.783 207.349C190.783 207.349 210.65 211.958 226.659 191.557C238.924 175.921 237.209 164.163 235.735 159.523C235.306 158.164 233.988 157.297 232.577 157.432C227.777 157.892 215.983 160.474 203.038 174.155C186.141 192.006 190.783 207.36 190.783 207.36V207.349Z" fill="url(#paint4_linear_493_72)"/>
</g>
<g opacity="0.7">
<path d="M172.339 162.146C172.339 162.146 188.975 168.459 205.213 152.698C217.656 140.616 217.551 130.248 216.819 126.067C216.61 124.844 215.575 123.935 214.331 123.893C210.127 123.726 199.629 124.583 186.821 134.888C170.112 148.34 172.328 162.157 172.328 162.157L172.339 162.146Z" fill="url(#paint5_linear_493_72)"/>
</g>
<g opacity="0.7">
<path d="M161.569 124.761C161.569 124.761 176.113 131.92 192.195 119.012C204.512 109.125 205.318 99.7187 205.014 95.8516C204.931 94.7228 204.073 93.8136 202.944 93.6672C199.138 93.1551 189.55 93.0297 177.054 101.276C160.743 112.041 161.569 124.761 161.569 124.761Z" fill="url(#paint6_linear_493_72)"/>
</g>
<g opacity="0.7">
<path d="M155.347 90.699C155.347 90.699 168.01 95.9143 180.84 84.1458C190.668 75.1261 190.815 67.1515 190.344 63.9115C190.208 62.9604 189.435 62.2497 188.483 62.187C185.252 61.9675 177.159 62.396 167.09 70.0466C153.946 80.0279 155.347 90.7094 155.347 90.7094V90.699Z" fill="url(#paint7_linear_493_72)"/>
</g>
<g opacity="0.7">
<path d="M148.791 61.5181C148.791 61.5181 162.123 64.6431 172.903 50.9724C181.164 40.4999 180.034 32.5985 179.052 29.4735C178.769 28.5642 177.891 27.9789 176.929 28.0625C173.698 28.3656 165.783 30.0797 157.073 39.2458C145.696 51.2024 148.791 61.5181 148.791 61.5181Z" fill="url(#paint8_linear_493_72)"/>
</g>
<g opacity="0.7">
<path d="M145.717 176.757C145.717 176.757 138.837 193.877 115.384 195.173C97.4202 196.156 89.5885 188.787 86.9013 185.286C86.1171 184.262 86.1485 182.84 86.985 181.858C89.8186 178.534 97.8489 171.134 114.715 168.626C136.725 165.355 145.707 176.757 145.707 176.757H145.717Z" fill="url(#paint9_linear_493_72)"/>
</g>
<g opacity="0.7">
<path d="M129.688 136.906C129.688 136.906 121.689 150.503 101.707 148.601C86.3994 147.148 80.7112 139.916 78.8918 136.613C78.3586 135.651 78.5677 134.449 79.4042 133.728C82.2274 131.283 89.9545 126.046 104.53 126.078C123.55 126.119 129.688 136.895 129.688 136.895V136.906Z" fill="url(#paint10_linear_493_72)"/>
</g>
<g opacity="0.7">
<path d="M122.839 101.046C122.839 101.046 114.098 111.853 96.9392 107.599C83.7958 104.338 79.7807 97.3044 78.62 94.1898C78.2854 93.2805 78.62 92.2667 79.4356 91.7441C82.2065 89.9778 89.6304 86.4243 102.324 88.3474C118.897 90.8557 122.839 101.046 122.839 101.046Z" fill="url(#paint11_linear_493_72)"/>
</g>
<g opacity="0.7">
<path d="M119.587 68.0295C119.587 68.0295 108.713 75.147 94.6598 66.4617C83.8899 59.804 82.3319 52.3939 82.1855 49.2897C82.1437 48.3805 82.7397 47.5757 83.618 47.3457C86.598 46.5619 94.2101 45.5272 104.959 50.8575C118.991 57.8287 119.587 68.0295 119.587 68.0295Z" fill="url(#paint12_linear_493_72)"/>
</g>
<g opacity="0.7">
<path d="M136.641 38.3887C136.641 38.3887 127.942 31.4175 131.309 17.6423C133.881 7.09664 139.517 3.85664 142.005 2.916C142.737 2.64425 143.553 2.916 143.971 3.564C145.393 5.77973 148.269 11.7162 146.763 21.8961C144.808 35.1905 136.631 38.3783 136.631 38.3783L136.641 38.3887Z" fill="url(#paint13_linear_493_72)"/>
</g>
<path opacity="0.7" d="M116.921 229.695C116.9 229.496 117.046 229.329 117.245 229.308C148.896 226.727 174.576 218.229 178.623 216.829C177.013 213.871 175.319 210.673 173.583 207.255C170.99 202.207 168.355 196.657 165.636 190.742C164.978 189.258 164.319 187.753 163.639 186.227C163.305 185.464 162.96 184.701 162.625 183.927C162.301 183.143 161.977 182.37 161.642 181.576C160.983 179.997 160.325 178.409 159.645 176.799C159.248 175.806 158.85 174.793 158.453 173.779C154.657 174.939 133.044 181.178 101.571 183.478C101.373 183.488 101.205 183.342 101.195 183.154C101.184 182.955 101.331 182.788 101.519 182.778C132.773 180.489 154.27 174.312 158.192 173.12C158.035 172.713 157.867 172.305 157.711 171.897C156.383 168.605 155.18 165.208 153.925 161.791C153.277 160.087 152.723 158.331 152.127 156.586C151.541 154.84 150.924 153.085 150.349 151.318C148.802 146.396 147.286 141.389 145.895 136.341C141.734 136.665 115.457 138.557 90.2682 136.989C90.0696 136.979 89.9232 136.811 89.9336 136.613C89.9441 136.414 90.1114 136.268 90.3101 136.278C115.175 137.815 141.117 135.986 145.696 135.641C145.153 133.645 144.63 131.638 144.138 129.631C141.828 120.465 139.925 111.195 138.492 102.081C134.163 102.081 112.383 101.809 90.8224 96.7504C90.6342 96.7086 90.5087 96.5101 90.561 96.3219C90.6028 96.1338 90.8015 96.0084 90.9897 96.0606C112.32 101.067 133.87 101.37 138.388 101.381C137.582 96.1652 136.924 91.0021 136.432 85.9435C136.139 82.9334 135.899 79.9652 135.721 77.0387C130.796 74.384 104.896 60.5043 92.5686 55.1426C92.3908 55.0695 92.3072 54.8604 92.3804 54.6723C92.4536 54.4946 92.6627 54.411 92.8509 54.4842C104.907 59.7309 129.908 73.0985 135.669 76.1922C135.052 65.7301 135.136 55.9161 135.669 47.2621C135.753 45.8512 135.826 44.4611 135.909 43.1128C135.993 41.7646 136.171 40.4477 136.296 39.1621C136.568 36.591 136.819 34.1558 137.06 31.8774C137.415 29.5989 137.739 27.4773 138.042 25.5124C138.367 23.5475 138.597 21.7289 138.921 20.1193C140.27 13.6602 141.043 9.96037 141.043 9.96037L141.284 10.0126C141.284 10.0126 140.562 13.7125 139.297 20.182C138.994 21.802 138.785 23.6206 138.492 25.5855C138.22 27.5504 137.917 29.6825 137.603 31.9505C137.394 34.2394 137.175 36.6642 136.945 39.2353C136.84 40.5208 136.673 41.8273 136.62 43.1756C136.558 44.5238 136.505 45.9034 136.443 47.3144C136.066 55.1008 136.077 63.7966 136.631 73.0567C140.604 69.1896 160.816 49.457 171.847 37.5317C171.983 37.3854 172.203 37.3749 172.349 37.5108C172.496 37.6467 172.506 37.8661 172.37 38.0125C160.826 50.4917 139.255 71.4994 136.683 73.9869C136.746 74.938 136.809 75.8995 136.882 76.8611C137.049 76.9551 137.112 77.1642 137.018 77.3418C136.997 77.3836 136.955 77.4045 136.924 77.4359C137.143 80.1951 137.405 82.9857 137.718 85.8181C138.168 89.9046 138.743 94.0539 139.402 98.245C143.218 96.7191 162.782 88.3787 181.666 70.6946C181.812 70.5587 182.032 70.5692 182.168 70.7155C182.303 70.8618 182.293 71.0813 182.147 71.2172C171.042 81.6165 159.708 88.7968 151.437 93.2805C145.404 96.5519 141.002 98.3809 139.517 98.9662C141.117 108.937 143.291 119.117 145.979 129.171C146.251 130.237 146.554 131.303 146.847 132.359C152.211 129.568 173.907 118.04 193.722 103.648C193.878 103.534 194.098 103.565 194.224 103.732C194.339 103.889 194.307 104.108 194.14 104.234C178.288 115.751 161.245 125.43 152.273 130.29C149.91 131.575 148.101 132.516 147.035 133.07C148.687 139.017 150.548 144.88 152.451 150.649C153.047 152.405 153.674 154.13 154.281 155.865C154.908 157.589 155.473 159.324 156.142 161.007C157.376 164.205 158.547 167.372 159.823 170.455C166.002 166.369 187.03 152.05 205.945 134.428C206.091 134.293 206.311 134.303 206.447 134.449C206.583 134.596 206.572 134.815 206.426 134.951C187.354 152.719 166.138 167.132 160.095 171.124C160.743 172.713 161.391 174.291 162.029 175.848C162.719 177.437 163.399 179.005 164.068 180.562C164.403 181.335 164.737 182.109 165.072 182.882C165.417 183.645 165.762 184.398 166.107 185.15C166.797 186.655 167.477 188.139 168.146 189.613C170.917 195.445 173.604 200.922 176.249 205.896C177.87 208.99 179.449 211.896 180.965 214.603C184.949 211.708 205.328 196.333 226 169.953C226.125 169.797 226.345 169.776 226.502 169.891C226.659 170.016 226.679 170.236 226.564 170.392C205.746 196.971 185.2 212.418 181.321 215.23C184.552 220.978 187.469 225.796 189.79 229.486C191.536 232.266 192.948 234.408 193.931 235.861C194.903 237.314 195.436 238.056 195.436 238.056L192.53 240.105C192.53 240.105 191.965 239.3 191.003 237.805C190.02 236.311 188.619 234.116 186.894 231.283C184.698 227.667 181.958 223.016 178.947 217.508C175.266 218.783 149.335 227.448 117.287 230.061C117.088 230.081 116.921 229.935 116.9 229.737L116.921 229.695Z" fill="url(#paint14_linear_493_72)"/>
<path opacity="0.7" d="M374.195 178.963C374.195 178.963 374.227 178.91 374.237 178.89C407.624 123.632 400.346 97.4298 377.656 101.893C367.608 103.868 359.849 111.769 357.246 121.678C356.388 124.918 355.154 128.116 352.906 131.147C350.041 135.014 346.392 136.508 342.68 136.696C334.765 137.104 327.404 140.888 322.719 147.273C320.179 150.743 317.627 154.412 315.107 158.279C272.99 222.776 232.911 253.472 219.015 266.798C214.728 270.905 218.147 278.086 224.034 277.354C240.032 275.368 284.45 267.07 326.243 233.792C332.109 229.12 335.581 222.138 336.208 214.665C336.448 211.781 337.578 208.583 339.983 205.071C345.493 197.023 353.847 192.895 362.244 189.278C367.2 187.146 371.414 183.561 374.206 178.942L374.195 178.963Z" fill="url(#paint15_linear_493_72)"/>
<path opacity="0.7" d="M344.813 169.044L377.447 173.444C377.531 173.288 377.625 173.141 377.719 172.984L345.148 168.595C355.813 154.046 366.374 138.17 376.778 121.061L396.488 126.004C396.509 125.837 396.53 125.68 396.55 125.513L377.039 120.622C380.657 114.664 384.254 108.55 387.83 102.3C387.673 102.248 387.506 102.196 387.349 102.143C377.175 119.911 367.221 135.808 357.58 150.012L350.867 133.394C350.742 133.509 350.606 133.624 350.47 133.739L357.235 150.503C344.489 169.253 332.297 185.035 320.89 198.319L310.538 165.146C310.423 165.323 310.297 165.491 310.182 165.668L320.513 198.758C301.222 221.166 284.188 236.405 270.512 246.668C269.696 247.285 268.891 247.87 268.096 248.455L266.256 221.417C266.099 221.584 265.953 221.752 265.796 221.919L267.626 248.8C240.764 268.313 222.33 272.473 217.447 273.278C217.499 273.435 217.562 273.591 217.635 273.748C221.2 273.153 231.249 270.895 246.076 262.983L257.807 269.871C257.87 269.85 257.933 269.829 257.996 269.808C258.121 269.766 258.247 269.735 258.372 269.693C258.393 269.693 258.424 269.672 258.445 269.672L246.588 262.711C253.646 258.917 261.76 253.859 270.763 247.107C280.288 239.958 289.866 231.628 299.454 222.18L327.184 233.05C327.331 232.935 327.477 232.809 327.623 232.694L299.841 221.804C309.712 212.052 319.572 201.12 329.37 189.069C334.535 182.715 339.69 176.036 344.813 169.055V169.044Z" fill="url(#paint16_linear_493_72)"/>
<path opacity="0.7" d="M302.068 119.315C302.068 119.315 302.079 119.274 302.089 119.263C317.993 76.9029 309.618 59.7831 294.55 65.7824C287.879 68.4371 283.551 74.8753 283.028 82.0346C282.85 84.3758 282.421 86.7378 281.261 89.1208C279.786 92.1517 277.455 93.6463 274.924 94.263C269.529 95.559 264.939 99.1021 262.534 104.108C261.227 106.826 259.94 109.679 258.696 112.668C237.962 162.512 214.289 188.798 206.426 199.772C204 203.158 207.273 207.663 211.246 206.409C222.016 202.991 251.555 191.578 276.074 163.275C279.514 159.303 281.01 154.046 280.487 148.82C280.278 146.803 280.644 144.452 281.857 141.724C284.617 135.474 289.845 131.554 295.167 127.99C298.315 125.889 300.751 122.879 302.079 119.336L302.068 119.315Z" fill="url(#paint17_linear_493_72)"/>
<path opacity="0.7" d="M280.55 116.253L303.595 115.093C303.637 114.978 303.679 114.853 303.72 114.738L280.717 115.887C286.196 104.495 291.434 92.204 296.401 79.0768L310.622 79.9547C310.622 79.8398 310.611 79.7248 310.601 79.6098L296.527 78.7423C298.252 74.175 299.946 69.5031 301.608 64.7372C301.493 64.7163 301.378 64.7058 301.253 64.6954C296.527 78.2407 291.706 90.4795 286.896 101.495L280.142 90.908C280.069 91.0021 279.995 91.0961 279.912 91.1902L286.729 101.872C280.351 116.42 273.983 128.868 267.824 139.487L256.427 117.957C256.364 118.093 256.312 118.228 256.249 118.364L267.615 139.842C257.201 157.756 247.424 170.445 239.321 179.276C238.84 179.799 238.359 180.311 237.878 180.823L233.141 162.428C233.058 162.564 232.974 162.7 232.89 162.825L237.606 181.116C221.598 198.006 209.437 203.242 206.175 204.412C206.238 204.517 206.3 204.611 206.363 204.715C208.737 203.848 215.376 201.005 224.578 193.647L233.549 196.887C233.549 196.887 233.633 196.845 233.675 196.825C233.758 196.783 233.831 196.741 233.915 196.699C233.936 196.699 233.946 196.678 233.967 196.678L224.902 193.396C229.272 189.874 234.218 185.349 239.551 179.538C245.197 173.392 250.729 166.421 256.124 158.687L276.629 162.616C276.712 162.512 276.796 162.418 276.89 162.313L256.354 158.373C261.896 150.388 267.291 141.588 272.498 132.025C275.238 126.976 277.936 121.719 280.57 116.253H280.55Z" fill="url(#paint18_linear_493_72)"/>
<path opacity="0.7" d="M152.65 268.69C141.42 264.478 108.849 256.001 75.3786 231.796C73.371 230.343 71.3425 228.984 69.314 227.73C65.5707 225.41 59.5479 224.741 52.9815 225.744C50.702 226.089 48.4644 226.099 46.53 225.504C46.4777 225.493 46.4254 225.472 46.3836 225.451C45.7667 225.253 45.1707 224.992 44.6165 224.657C42.8181 223.56 41.8666 222.232 41.2392 220.821C39.3048 216.515 33.052 213.944 24.7498 214.54C21.7175 214.759 19.0094 215.292 16.6881 216.129C16.5522 216.181 16.4162 216.223 16.2907 216.275C10.4667 218.512 7.36118 222.734 8.5009 228.608C8.5009 228.608 8.52181 228.702 8.52181 228.744C9.5988 234.011 14.0845 240.606 23.035 248.267C23.0977 248.32 23.1605 248.382 23.2336 248.434C24.0492 249.135 24.8962 249.835 25.785 250.546C25.7954 250.546 25.8059 250.567 25.8163 250.577C28.0226 252.343 31.4417 253.409 35.5092 253.66C42.3998 254.099 49.2382 254.789 53.6298 257.768C55.5432 259.064 56.4111 260.412 56.5366 261.75C56.8503 264.927 59.1924 267.54 63.2913 268.972L63.239 268.993C63.354 269.024 63.4795 269.055 63.5945 269.097H63.6154C63.8559 269.17 64.1068 269.244 64.3578 269.317C83.5449 274.658 103.61 276.079 119.828 276.037C119.828 276.037 119.87 276.037 119.891 276.037C119.995 276.037 120.1 276.037 120.194 276.037C120.246 276.037 120.298 276.037 120.351 276.037C132.574 275.974 142.549 275.097 148.227 274.459C150.726 274.177 152.723 273.017 153.622 271.762C153.685 271.679 153.737 271.595 153.789 271.512C154.448 270.404 154.229 269.275 152.65 268.679V268.69Z" fill="#0B0244"/>
<path opacity="0.7" d="M28.1376 194.41C28.1376 194.41 28.1167 194.368 28.1063 194.347C1.21297 149.845 7.07889 128.732 25.3563 132.338C33.4494 133.937 39.6917 140.292 41.7934 148.266C42.4835 150.879 43.4768 153.45 45.2857 155.896C47.5966 159.011 50.5347 160.213 53.5252 160.369C59.893 160.704 65.8321 163.745 69.5963 168.887C71.6458 171.678 73.6952 174.636 75.7341 177.75C109.654 229.705 141.932 254.413 153.131 265.157C156.581 268.47 153.831 274.25 149.084 273.665C136.192 272.066 100.421 265.387 66.7627 238.579C62.0365 234.816 59.2447 229.193 58.7428 223.173C58.5546 220.853 57.6449 218.271 55.7106 215.449C51.2771 208.969 44.5434 205.635 37.7782 202.73C33.784 201.016 30.3962 198.12 28.1481 194.41H28.1376Z" fill="url(#paint19_linear_493_72)"/>
<path opacity="0.7" d="M51.8104 186.425L25.5236 189.968C25.4504 189.843 25.3772 189.717 25.304 189.602L51.5386 186.07C42.9436 174.354 34.4427 161.561 26.0673 147.786L10.1949 151.768C10.1739 151.632 10.1635 151.506 10.1426 151.371L25.8582 147.43C22.9409 142.633 20.0446 137.71 17.1691 132.673C17.2946 132.631 17.4305 132.589 17.556 132.547C25.7536 146.855 33.7631 159.659 41.532 171.103L46.9379 157.725C47.0424 157.819 47.147 157.913 47.2515 157.997L41.8039 171.5C52.0718 186.603 61.8902 199.312 71.0812 210.014L79.4147 183.29C79.5088 183.426 79.6029 183.572 79.697 183.708L71.3844 210.359C86.9223 228.409 100.641 240.679 111.662 248.947C112.32 249.438 112.969 249.919 113.606 250.389L115.091 228.608C115.217 228.744 115.342 228.88 115.457 229.005L113.983 250.661C135.617 266.38 150.464 269.724 154.396 270.372C154.354 270.498 154.302 270.623 154.25 270.749C151.385 270.268 143.291 268.449 131.34 262.084L121.888 267.634C121.888 267.634 121.783 267.603 121.741 267.592C121.637 267.561 121.543 267.53 121.438 267.498C121.417 267.498 121.396 267.488 121.375 267.477L130.922 261.865C125.234 258.813 118.699 254.737 111.452 249.292C103.778 243.533 96.061 236.823 88.3443 229.214L66.0099 237.962C65.8949 237.868 65.7694 237.774 65.6544 237.68L88.0306 228.911C80.0839 221.051 72.1372 212.251 64.2533 202.542C60.0917 197.42 55.9406 192.038 51.8104 186.415V186.425Z" fill="url(#paint20_linear_493_72)"/>
<path d="M264.813 152.008H234.239L200.204 132.369C195.823 129.84 188.169 130.154 183.098 133.08L150.287 152.008H119.723V240.439C119.598 242.153 120.549 243.804 122.661 245.017L184.311 280.594C188.692 283.123 196.346 282.81 201.417 279.883L260.61 245.728C263.234 244.212 264.635 242.289 264.771 240.439H264.792V152.008H264.813Z" fill="url(#paint21_linear_493_72)"/>
<path d="M263.914 152.008V241.411H263.893C263.83 242.299 263.464 243.209 262.837 244.087C264.039 242.937 264.698 241.672 264.782 240.439H264.803V152.008H263.914Z" fill="#6EE8FC"/>
<path d="M184.332 192.163L122.682 156.586C118.301 154.057 118.845 149.636 123.906 146.72L183.098 112.564C188.159 109.648 195.813 109.324 200.204 111.853L261.854 147.43C266.235 149.96 265.691 154.381 260.631 157.297L201.438 191.452C196.377 194.368 188.723 194.692 184.332 192.163Z" fill="url(#paint22_linear_493_72)"/>
<path d="M185.545 192.163L123.895 156.586C119.514 154.057 120.058 149.636 125.119 146.72L184.311 112.564C186.904 111.069 190.187 110.254 193.356 110.16C189.821 110.055 186.026 110.871 183.098 112.564L123.906 146.72C118.845 149.636 118.291 154.057 122.682 156.586L184.332 192.163C186.465 193.396 189.382 193.95 192.394 193.856C189.821 193.783 187.396 193.229 185.555 192.163H185.545Z" fill="#08D410"/>
<path d="M261.854 147.43L200.204 111.853C198.061 110.62 195.133 110.066 192.111 110.16C194.673 110.233 197.099 110.787 198.939 111.853L260.589 147.43C264.97 149.96 264.426 154.381 259.365 157.297L200.173 191.452C197.59 192.947 194.328 193.752 191.17 193.856C194.704 193.961 198.511 193.146 201.449 191.452L260.641 157.297C265.702 154.381 266.256 149.96 261.864 147.43H261.854Z" fill="#6EE8FC"/>
<path d="M186.36 181.9L140.458 155.415C137.196 153.534 137.603 150.242 141.368 148.068L185.44 122.639C189.205 120.465 194.914 120.225 198.176 122.116L244.079 148.601C247.341 150.482 246.933 153.774 243.169 155.948L199.096 181.377C195.332 183.551 189.623 183.791 186.36 181.9Z" fill="url(#paint23_linear_493_72)"/>
<path d="M187.981 173.664L154.731 154.475C152.367 153.105 152.66 150.723 155.389 149.155L187.312 130.729C190.041 129.15 194.171 128.983 196.534 130.342L229.785 149.531C232.148 150.9 231.855 153.283 229.126 154.851L197.203 173.277C194.474 174.855 190.344 175.022 187.981 173.664Z" fill="#6DE0F6"/>
<mask id="mask0_493_72" style="mask-type:luminance" maskUnits="userSpaceOnUse" x="153" y="129" width="79" height="46">
<path d="M187.981 173.664L154.731 154.475C152.367 153.105 152.66 150.723 155.389 149.155L187.312 130.729C190.041 129.15 194.171 128.983 196.534 130.342L229.785 149.531C232.148 150.9 231.855 153.283 229.126 154.851L197.203 173.277C194.474 174.855 190.344 175.022 187.981 173.664Z" fill="white"/>
</mask>
<g mask="url(#mask0_493_72)">
<path d="M155.379 151.747L187.322 133.31C190.051 131.732 194.182 131.564 196.555 132.923L229.816 152.123C230.339 152.426 230.715 152.781 230.977 153.168C231.772 151.861 231.426 150.461 229.816 149.531L196.555 130.331C194.192 128.962 190.062 129.14 187.322 130.718L155.379 149.155C153.256 150.377 152.629 152.091 153.549 153.44C153.915 152.833 154.511 152.259 155.379 151.757V151.747Z" fill="#267FE5"/>
<path d="M155.379 154.882L187.322 136.446C190.051 134.867 194.182 134.7 196.555 136.059L229.816 155.259C230.234 155.499 230.538 155.781 230.789 156.074C231.845 154.694 231.562 153.137 229.816 152.133L196.555 132.934C194.192 131.565 190.062 131.742 187.322 133.321L155.379 151.757C153.131 153.053 152.556 154.893 153.748 156.272C154.124 155.781 154.668 155.311 155.379 154.893V154.882Z" fill="#25BFEC"/>
<path d="M154.061 159.732C154.406 159.366 154.835 159.021 155.379 158.708L187.322 140.271C190.051 138.693 194.182 138.525 196.555 139.884L229.816 159.084C230.067 159.23 230.276 159.387 230.464 159.554C231.866 158.091 231.709 156.356 229.816 155.259L196.555 136.059C194.192 134.69 190.062 134.867 187.322 136.446L155.379 154.882C152.942 156.293 152.461 158.342 154.061 159.732Z" fill="#18D0F7"/>
</g>
<path d="M264.813 137.324H234.239L200.204 117.685C195.823 115.156 188.169 115.469 183.098 118.396L150.287 137.324H119.723V143.636C119.598 145.35 120.549 147.002 122.661 148.214L184.311 183.791C188.692 186.321 196.346 186.007 201.417 183.081L260.61 148.925C263.234 147.409 264.635 145.486 264.771 143.636H264.792V137.324H264.813Z" fill="url(#paint24_linear_493_72)"/>
<path d="M263.914 137.324V144.608H263.893C263.83 145.497 263.464 146.406 262.837 147.284C264.039 146.134 264.698 144.87 264.782 143.636H264.803V137.324H263.914Z" fill="#6EE8FC"/>
<path d="M184.332 177.489L122.682 141.912C118.301 139.383 118.845 134.961 123.906 132.045L183.098 97.8897C188.159 94.9737 195.813 94.6497 200.204 97.179L261.854 132.756C266.235 135.285 265.691 139.707 260.631 142.623L201.438 176.778C196.377 179.694 188.723 180.018 184.332 177.489Z" fill="url(#paint25_linear_493_72)"/>
<path d="M185.545 177.489L123.895 141.912C119.514 139.383 120.058 134.961 125.119 132.045L184.311 97.8897C186.904 96.3951 190.187 95.5799 193.356 95.4858C189.821 95.3813 186.026 96.1965 183.098 97.8897L123.906 132.045C118.845 134.961 118.291 139.383 122.682 141.912L184.332 177.489C186.465 178.722 189.382 179.276 192.394 179.182C189.821 179.109 187.396 178.555 185.555 177.489H185.545Z" fill="#08D410"/>
<path d="M261.854 132.746L200.204 97.1685C198.061 95.9352 195.133 95.3813 192.111 95.4753C194.673 95.5485 197.099 96.1024 198.939 97.1685L260.589 132.746C264.97 135.275 264.426 139.696 259.365 142.612L200.173 176.768C197.59 178.262 194.328 179.067 191.17 179.172C194.704 179.276 198.511 178.461 201.449 176.768L260.641 142.612C265.702 139.696 266.256 135.275 261.864 132.746H261.854Z" fill="#6EE8FC"/>
<path d="M186.36 167.226L140.458 140.741C137.196 138.86 137.603 135.568 141.368 133.394L185.44 107.965C189.205 105.791 194.914 105.551 198.176 107.442L244.079 133.927C247.341 135.808 246.933 139.1 243.169 141.274L199.096 166.703C195.332 168.877 189.623 169.117 186.36 167.226Z" fill="url(#paint26_linear_493_72)"/>
<path d="M187.981 158.99L154.731 139.801C152.367 138.431 152.66 136.048 155.389 134.481L187.312 116.055C190.041 114.476 194.171 114.309 196.534 115.668L229.785 134.857C232.148 136.226 231.855 138.609 229.126 140.177L197.203 158.603C194.474 160.181 190.344 160.348 187.981 158.99Z" fill="#6DE0F6"/>
<mask id="mask1_493_72" style="mask-type:luminance" maskUnits="userSpaceOnUse" x="153" y="114" width="79" height="46">
<path d="M187.981 158.99L154.731 139.801C152.367 138.431 152.66 136.048 155.389 134.481L187.312 116.055C190.041 114.476 194.171 114.309 196.534 115.668L229.785 134.857C232.148 136.226 231.855 138.609 229.126 140.177L197.203 158.603C194.474 160.181 190.344 160.348 187.981 158.99Z" fill="white"/>
</mask>
<g mask="url(#mask1_493_72)">
<path d="M155.379 137.072L187.322 118.636C190.051 117.058 194.182 116.89 196.555 118.249L229.816 137.449C230.339 137.752 230.715 138.107 230.977 138.494C231.772 137.187 231.426 135.787 229.816 134.857L196.555 115.657C194.192 114.288 190.062 114.466 187.322 116.044L155.379 134.48C153.256 135.703 152.629 137.417 153.549 138.766C153.915 138.159 154.511 137.585 155.379 137.083V137.072Z" fill="#267FE5"/>
<path d="M155.379 140.198L187.322 121.761C190.051 120.183 194.182 120.016 196.555 121.374L229.816 140.574C230.234 140.814 230.538 141.097 230.789 141.389C231.845 140.01 231.562 138.452 229.816 137.449L196.555 118.249C194.192 116.88 190.062 117.058 187.322 118.636L155.379 137.073C153.131 138.369 152.556 140.208 153.748 141.588C154.124 141.097 154.668 140.626 155.379 140.208V140.198Z" fill="#25BFEC"/>
<path d="M154.061 145.047C154.406 144.681 154.835 144.337 155.379 144.023L187.322 125.586C190.051 124.008 194.182 123.841 196.555 125.2L229.816 144.399C230.067 144.546 230.276 144.702 230.464 144.87C231.866 143.406 231.709 141.671 229.816 140.574L196.555 121.374C194.192 120.005 190.062 120.183 187.322 121.761L155.379 140.198C152.942 141.609 152.461 143.657 154.061 145.047Z" fill="#18D0F7"/>
</g>
<path d="M264.813 124.823H234.239L200.204 105.185C195.823 102.656 188.169 102.969 183.098 105.896L150.287 124.823H119.723V131.136C119.598 132.85 120.549 134.502 122.661 135.714L184.311 171.291C188.692 173.821 196.346 173.507 201.417 170.581L260.61 136.425C263.234 134.909 264.635 132.986 264.771 131.136H264.792V124.823H264.813Z" fill="url(#paint27_linear_493_72)"/>
<path d="M263.914 124.823V132.108H263.893C263.83 132.997 263.464 133.906 262.837 134.784C264.039 133.634 264.698 132.369 264.782 131.136H264.803V124.823H263.914Z" fill="#6EE8FC"/>
<path d="M184.332 164.978L122.682 129.401C118.301 126.872 118.845 122.451 123.906 119.535L183.098 85.3791C188.159 82.4631 195.813 82.1391 200.204 84.6684L261.854 120.246C266.235 122.775 265.691 127.196 260.631 130.112L201.438 164.268C196.377 167.184 188.723 167.508 184.332 164.978Z" fill="url(#paint28_linear_493_72)"/>
<path d="M185.545 164.978L123.895 129.401C119.514 126.872 120.058 122.451 125.119 119.535L184.311 85.3791C186.904 83.8845 190.187 83.0693 193.356 82.9752C189.821 82.8707 186.026 83.686 183.098 85.3791L123.906 119.535C118.845 122.451 118.291 126.872 122.682 129.401L184.332 164.978C186.465 166.212 189.382 166.766 192.394 166.672C189.821 166.598 187.396 166.045 185.555 164.978H185.545Z" fill="#08D410"/>
<path d="M261.854 120.235L200.204 84.658C198.061 83.4247 195.133 82.8707 192.111 82.9648C194.673 83.0379 197.099 83.5919 198.939 84.658L260.589 120.235C264.97 122.764 264.426 127.186 259.365 130.102L200.173 164.257C197.59 165.752 194.328 166.557 191.17 166.661C194.704 166.766 198.511 165.95 201.449 164.257L260.641 130.102C265.702 127.186 266.256 122.764 261.864 120.235H261.854Z" fill="#6EE8FC"/>
<path d="M186.36 154.715L140.458 128.231C137.196 126.349 137.603 123.057 141.368 120.883L185.44 95.4545C189.205 93.2805 194.914 93.0401 198.176 94.9319L244.079 121.416C247.341 123.298 246.933 126.59 243.169 128.764L199.096 154.192C195.332 156.366 189.623 156.607 186.36 154.715Z" fill="url(#paint29_linear_493_72)"/>
<path d="M187.981 146.479L154.731 127.29C152.367 125.921 152.66 123.538 155.389 121.97L187.312 103.544C190.041 101.966 194.171 101.799 196.534 103.157L229.785 122.346C232.148 123.716 231.855 126.099 229.126 127.666L197.203 146.092C194.474 147.671 190.344 147.838 187.981 146.479Z" fill="#6DE0F6"/>
<mask id="mask2_493_72" style="mask-type:luminance" maskUnits="userSpaceOnUse" x="153" y="102" width="79" height="46">
<path d="M187.981 146.479L154.731 127.29C152.367 125.921 152.66 123.538 155.389 121.97L187.312 103.544C190.041 101.966 194.171 101.799 196.534 103.157L229.785 122.346C232.148 123.716 231.855 126.099 229.126 127.666L197.203 146.092C194.474 147.671 190.344 147.838 187.981 146.479Z" fill="white"/>
</mask>
<g mask="url(#mask2_493_72)">
<path d="M155.379 124.562L187.322 106.125C190.051 104.547 194.182 104.38 196.555 105.739L229.816 124.938C230.339 125.241 230.715 125.597 230.977 125.983C231.772 124.677 231.426 123.276 229.816 122.346L196.555 103.147C194.192 101.777 190.062 101.955 187.322 103.533L155.379 121.97C153.256 123.193 152.629 124.907 153.549 126.255C153.915 125.649 154.511 125.074 155.379 124.572V124.562Z" fill="#267FE5"/>
<path d="M155.379 127.698L187.322 109.261C190.051 107.683 194.182 107.516 196.555 108.874L229.816 128.074C230.234 128.314 230.538 128.596 230.789 128.889C231.845 127.51 231.562 125.952 229.816 124.949L196.555 105.749C194.192 104.38 190.062 104.558 187.322 106.136L155.379 124.573C153.131 125.869 152.556 127.708 153.748 129.088C154.124 128.596 154.668 128.126 155.379 127.708V127.698Z" fill="#25BFEC"/>
<path d="M154.061 132.547C154.406 132.181 154.835 131.836 155.379 131.523L187.322 113.086C190.051 111.508 194.182 111.341 196.555 112.7L229.816 131.899C230.067 132.045 230.276 132.202 230.464 132.369C231.866 130.906 231.709 129.171 229.816 128.074L196.555 108.874C194.192 107.505 190.062 107.683 187.322 109.261L155.379 127.698C152.942 129.109 152.461 131.157 154.061 132.547Z" fill="#18D0F7"/>
</g>
<path d="M179.815 267.258L129.74 238.359C128.391 237.586 127.293 235.495 127.293 233.698V172.242C127.293 170.445 128.391 169.619 129.74 170.392L179.815 199.291C181.164 200.064 182.262 202.155 182.262 203.952V265.408C182.262 267.206 181.164 268.031 179.815 267.258Z" fill="url(#paint30_linear_493_72)"/>
<path d="M172.454 253.023L137.091 232.621C136.139 232.067 135.366 230.594 135.366 229.329V185.934C135.366 184.669 136.139 184.084 137.091 184.627L172.454 205.029C173.405 205.583 174.179 207.057 174.179 208.321V251.716C174.179 252.981 173.405 253.566 172.454 253.023Z" fill="#6DE0F6"/>
<path d="M139.527 231.001C138.576 230.447 137.802 228.974 137.802 227.709V185.035L137.091 184.627C136.139 184.074 135.366 184.659 135.366 185.934V229.329C135.366 230.594 136.139 232.067 137.091 232.621L172.454 253.023C173.405 253.577 174.179 252.991 174.179 251.716V250.985L139.527 230.991V231.001Z" fill="#267FE5"/>
<path d="M148.948 203.284L141.734 199.124V197.901L148.948 202.061V203.284Z" fill="#267FE5"/>
<path d="M154.668 206.586L151.071 204.506V203.284L154.668 205.363V206.586Z" fill="#18D0F7"/>
<path d="M160.157 209.753L156.55 207.673V206.45L160.157 208.53V209.753Z" fill="#267FE5"/>
<path d="M165.647 212.92L162.039 210.84V209.617L165.647 211.697V212.92Z" fill="#267FE5"/>
<path d="M148.948 206.22L141.734 202.061V200.838L148.948 204.998V206.22Z" fill="#267FE5"/>
<path d="M154.668 209.523L151.071 207.443V206.22L154.668 208.3V209.523Z" fill="#18D0F7"/>
<path d="M160.157 212.69L156.55 210.61V209.387L160.157 211.467V212.69Z" fill="#267FE5"/>
<path d="M165.647 215.857L162.039 213.777V212.554L165.647 214.634V215.857Z" fill="#267FE5"/>
<path d="M148.948 209.157L141.734 204.998V203.775L148.948 207.935V209.157Z" fill="#267FE5"/>
<path d="M157.428 212.826L156.55 212.324L151.071 209.157V210.38L156.55 213.547L157.428 214.049L160.157 215.627V214.404L157.428 212.826Z" fill="#267FE5"/>
<path d="M165.647 218.794L162.039 216.714V215.491L165.647 217.571V218.794Z" fill="#267FE5"/>
<path d="M167.529 212.784V215.721V216.944V218.658V219.013V219.881L171.136 221.961V221.093V220.738V219.024V217.801V214.864L167.529 212.784Z" fill="#267FE5"/>
<path d="M148.948 212.094L141.734 207.935V206.712L148.948 210.871V212.094Z" fill="#18D0F7"/>
<path d="M154.668 215.397L151.071 213.317V212.094L154.668 214.174V215.397Z" fill="#267FE5"/>
<path d="M160.157 217.341L159.195 216.787L156.55 215.261V216.484L159.195 218.01L160.157 218.564L165.647 221.731V220.508L160.157 217.341Z" fill="#267FE5"/>
<path d="M171.136 224.897L167.529 222.818V221.595L171.136 223.675V224.897Z" fill="#267FE5"/>
<path d="M148.948 220.905L141.734 216.745V215.522L148.948 219.682V220.905Z" fill="#267FE5"/>
<path d="M154.668 224.208L151.071 222.128V220.905L154.668 222.985V224.208Z" fill="#267FE5"/>
<path d="M160.157 226.152L159.195 225.598L156.55 224.072V225.295L159.195 226.821L160.157 227.375L165.647 230.541V229.319L160.157 226.152Z" fill="#267FE5"/>
<path d="M171.136 233.708L167.529 231.628V230.405L171.136 232.485V233.708Z" fill="#267FE5"/>
<path d="M148.948 223.842L141.734 219.682V218.459L148.948 222.619V223.842Z" fill="#267FE5"/>
<path d="M154.668 227.145L151.071 225.065V223.842L154.668 225.922V227.145Z" fill="#267FE5"/>
<path d="M171.136 236.645L167.529 234.565V233.342L171.136 235.422V236.645Z" fill="#267FE5"/>
<path d="M148.948 226.779L141.734 222.619V221.396L148.948 225.556V226.779Z" fill="#267FE5"/>
<path d="M154.668 230.081L151.071 228.002V226.779L154.668 228.859V230.081Z" fill="#267FE5"/>
<path d="M160.157 229.089L159.195 228.535L156.55 227.009V227.866V228.232V231.168L159.195 232.694L160.157 233.248L165.647 236.415V233.478V233.112V232.255L160.157 229.089Z" fill="#18D0F7"/>
<path d="M171.136 239.582L167.529 237.502V236.279L171.136 238.359V239.582Z" fill="#267FE5"/>
<path d="M148.948 215.031L141.734 210.871V209.649L148.948 213.808V215.031Z" fill="#267FE5"/>
<path d="M154.668 218.334L151.071 216.254V215.031L154.668 217.111V218.334Z" fill="#18D0F7"/>
<path d="M165.647 224.668L162.039 222.588V221.365L165.647 223.445V224.668Z" fill="#267FE5"/>
<path d="M171.136 227.834L167.529 225.755V224.532L171.136 226.612V227.834Z" fill="#267FE5"/>
<path d="M148.948 217.968L141.734 213.808V212.586L148.948 216.745V217.968Z" fill="#267FE5"/>
<path d="M154.668 221.271L151.071 219.191V217.968L154.668 220.048V221.271Z" fill="#267FE5"/>
<path d="M156.55 218.198V218.804V219.421V222.358L160.157 224.438V221.501V220.895V220.278L156.55 218.198Z" fill="#18D0F7"/>
<path d="M165.647 227.604L162.039 225.525V224.302L165.647 226.382V227.604Z" fill="#267FE5"/>
<path d="M171.136 230.771L167.529 228.691V227.469L171.136 229.548V230.771Z" fill="#267FE5"/>
<path d="M234.302 239.436L255.632 227.207C256.082 226.946 256.448 227.228 256.448 227.824C256.448 228.42 256.082 229.12 255.632 229.371L234.302 241.599C233.852 241.86 233.486 241.578 233.486 240.983C233.486 240.387 233.852 239.687 234.302 239.436Z" fill="#370175"/>
<path d="M255.81 227.145C255.842 227.239 255.863 227.354 255.863 227.489C255.863 228.085 255.497 228.785 255.047 229.036L233.716 241.265C233.654 241.307 233.591 241.307 233.528 241.317C233.643 241.662 233.936 241.798 234.281 241.589L255.612 229.36C256.061 229.099 256.427 228.409 256.427 227.813C256.427 227.301 256.155 227.051 255.8 227.145H255.81Z" fill="#480689"/>
<path d="M234.312 235.036L255.643 222.807C256.093 222.546 256.459 222.828 256.459 223.424C256.459 224.02 256.093 224.72 255.643 224.971L234.312 237.199C233.863 237.46 233.497 237.178 233.497 236.582C233.497 235.987 233.863 235.286 234.312 235.036Z" fill="#370175"/>
<path d="M234.323 230.635L255.653 218.407C256.103 218.146 256.469 218.428 256.469 219.024C256.469 219.619 256.103 220.32 255.653 220.571L234.323 232.799C233.873 233.06 233.507 232.778 233.507 232.182C233.507 231.587 233.873 230.886 234.323 230.635Z" fill="#370175"/>
<path d="M234.344 226.246L255.674 214.017C256.124 213.756 256.49 214.038 256.49 214.634C256.49 215.23 256.124 215.93 255.674 216.181L234.344 228.409C233.894 228.671 233.528 228.388 233.528 227.793C233.528 227.197 233.894 226.497 234.344 226.246Z" fill="#370175"/>
<path d="M234.354 221.846L255.685 209.617C256.134 209.356 256.5 209.638 256.5 210.234C256.5 210.83 256.134 211.53 255.685 211.781L234.354 224.009C233.905 224.27 233.539 223.988 233.539 223.392C233.539 222.797 233.905 222.096 234.354 221.846Z" fill="#370175"/>
<path d="M255.831 222.755C255.863 222.849 255.883 222.964 255.883 223.1C255.883 223.696 255.517 224.396 255.068 224.647L233.737 236.875C233.675 236.917 233.612 236.917 233.549 236.927C233.664 237.272 233.957 237.408 234.302 237.199L255.633 224.971C256.082 224.709 256.448 224.02 256.448 223.424C256.448 222.912 256.176 222.661 255.821 222.755H255.831Z" fill="#480689"/>
<path d="M255.842 218.365C255.873 218.459 255.894 218.574 255.894 218.71C255.894 219.306 255.528 220.006 255.078 220.257L233.748 232.485C233.685 232.527 233.622 232.527 233.56 232.538C233.675 232.883 233.967 233.018 234.312 232.809L255.643 220.581C256.093 220.32 256.459 219.63 256.459 219.034C256.459 218.522 256.187 218.271 255.831 218.365H255.842Z" fill="#480689"/>
<path d="M255.852 213.976C255.883 214.07 255.904 214.185 255.904 214.32C255.904 214.916 255.538 215.616 255.089 215.867L233.758 228.096C233.695 228.138 233.633 228.137 233.57 228.148C233.685 228.493 233.978 228.629 234.323 228.42L255.653 216.191C256.103 215.93 256.469 215.24 256.469 214.644C256.469 214.132 256.197 213.882 255.842 213.976H255.852Z" fill="#480689"/>
<path d="M255.863 209.586C255.894 209.68 255.915 209.795 255.915 209.931C255.915 210.527 255.549 211.227 255.099 211.478L233.769 223.706C233.706 223.748 233.643 223.748 233.58 223.758C233.695 224.103 233.988 224.239 234.333 224.03L255.664 211.802C256.113 211.54 256.479 210.851 256.479 210.255C256.479 209.743 256.208 209.492 255.852 209.586H255.863Z" fill="#480689"/>
<path d="M207.126 255.019L228.457 242.791C228.907 242.529 229.273 242.812 229.273 243.407C229.273 244.003 228.907 244.703 228.457 244.954L207.126 257.183C206.677 257.444 206.311 257.162 206.311 256.566C206.311 255.97 206.677 255.27 207.126 255.019Z" fill="#370175"/>
<path d="M228.645 242.728C228.677 242.822 228.697 242.937 228.697 243.073C228.697 243.669 228.331 244.369 227.882 244.62L206.551 256.848C206.489 256.89 206.426 256.89 206.363 256.9C206.478 257.245 206.771 257.381 207.116 257.172L228.446 244.944C228.896 244.682 229.262 243.993 229.262 243.397C229.262 242.885 228.99 242.634 228.635 242.728H228.645Z" fill="#480689"/>
<path d="M207.137 250.619L228.467 238.391C228.917 238.129 229.283 238.411 229.283 239.007C229.283 239.603 228.917 240.303 228.467 240.554L207.137 252.782C206.687 253.044 206.321 252.761 206.321 252.166C206.321 251.57 206.687 250.87 207.137 250.619Z" fill="#370175"/>
<path d="M207.158 246.219L228.488 233.99C228.938 233.729 229.304 234.011 229.304 234.607C229.304 235.203 228.938 235.903 228.488 236.154L207.158 248.382C206.708 248.644 206.342 248.361 206.342 247.766C206.342 247.17 206.708 246.47 207.158 246.219Z" fill="#370175"/>
<path d="M207.168 241.819L228.499 229.59C228.948 229.329 229.314 229.611 229.314 230.207C229.314 230.803 228.948 231.503 228.499 231.754L207.168 243.982C206.719 244.243 206.353 243.961 206.353 243.365C206.353 242.77 206.719 242.069 207.168 241.819Z" fill="#370175"/>
<path d="M207.179 237.429L228.509 225.201C228.959 224.939 229.325 225.222 229.325 225.817C229.325 226.413 228.959 227.113 228.509 227.364L207.179 239.592C206.729 239.854 206.363 239.572 206.363 238.976C206.363 238.38 206.729 237.68 207.179 237.429Z" fill="#370175"/>
<path d="M228.656 238.338C228.687 238.432 228.708 238.547 228.708 238.683C228.708 239.279 228.342 239.979 227.892 240.23L206.562 252.458C206.499 252.5 206.436 252.5 206.374 252.511C206.489 252.856 206.781 252.991 207.126 252.782L228.457 240.554C228.907 240.293 229.273 239.603 229.273 239.007C229.273 238.495 229.001 238.244 228.645 238.338H228.656Z" fill="#480689"/>
<path d="M228.666 233.949C228.698 234.043 228.718 234.158 228.718 234.293C228.718 234.889 228.352 235.589 227.903 235.84L206.572 248.069C206.509 248.111 206.447 248.11 206.384 248.121C206.499 248.466 206.792 248.602 207.137 248.393L228.467 236.164C228.917 235.903 229.283 235.213 229.283 234.617C229.283 234.105 229.011 233.855 228.656 233.949H228.666Z" fill="#480689"/>
<path d="M228.677 229.559C228.708 229.653 228.729 229.768 228.729 229.904C228.729 230.5 228.363 231.2 227.913 231.451L206.583 243.679C206.52 243.721 206.457 243.721 206.394 243.731C206.509 244.076 206.802 244.212 207.147 244.003L228.478 231.775C228.927 231.513 229.293 230.824 229.293 230.228C229.293 229.716 229.022 229.465 228.666 229.559H228.677Z" fill="#480689"/>
<path d="M228.687 225.169C228.718 225.263 228.739 225.378 228.739 225.514C228.739 226.11 228.373 226.81 227.924 227.061L206.593 239.289C206.53 239.331 206.468 239.331 206.405 239.342C206.52 239.687 206.813 239.822 207.158 239.613L228.488 227.385C228.938 227.124 229.304 226.434 229.304 225.838C229.304 225.326 229.032 225.075 228.677 225.169H228.687Z" fill="#480689"/>
<path d="M234.292 213.683L255.622 201.455C256.072 201.193 256.438 201.475 256.438 202.071C256.438 202.667 256.072 203.367 255.622 203.618L234.292 215.846C233.842 216.108 233.476 215.826 233.476 215.23C233.476 214.634 233.842 213.934 234.292 213.683Z" fill="#370175"/>
<path d="M255.8 201.392C255.831 201.486 255.852 201.601 255.852 201.737C255.852 202.333 255.486 203.033 255.037 203.284L233.706 215.512C233.643 215.554 233.581 215.554 233.518 215.564C233.633 215.909 233.926 216.045 234.271 215.836L255.601 203.608C256.051 203.346 256.417 202.657 256.417 202.061C256.417 201.549 256.145 201.298 255.789 201.392H255.8Z" fill="#480689"/>
<path d="M234.302 209.283L255.633 197.054C256.082 196.793 256.448 197.075 256.448 197.671C256.448 198.267 256.082 198.967 255.633 199.218L234.302 211.446C233.852 211.708 233.486 211.425 233.486 210.83C233.486 210.234 233.852 209.534 234.302 209.283Z" fill="#370175"/>
<path d="M234.312 204.883L255.643 192.654C256.093 192.393 256.459 192.675 256.459 193.271C256.459 193.867 256.093 194.567 255.643 194.818L234.312 207.046C233.863 207.307 233.497 207.025 233.497 206.43C233.497 205.834 233.863 205.134 234.312 204.883Z" fill="#370175"/>
<path d="M234.323 200.493L255.653 188.265C256.103 188.003 256.469 188.286 256.469 188.881C256.469 189.477 256.103 190.177 255.653 190.428L234.323 202.656C233.873 202.918 233.507 202.636 233.507 202.04C233.507 201.444 233.873 200.744 234.323 200.493Z" fill="#370175"/>
<path d="M234.333 196.093L255.664 183.865C256.114 183.603 256.48 183.885 256.48 184.481C256.48 185.077 256.114 185.777 255.664 186.028L234.333 198.256C233.884 198.518 233.518 198.235 233.518 197.64C233.518 197.044 233.884 196.344 234.333 196.093Z" fill="#370175"/>
<path d="M255.81 197.002C255.842 197.096 255.863 197.211 255.863 197.347C255.863 197.943 255.497 198.643 255.047 198.894L233.716 211.122C233.654 211.164 233.591 211.164 233.528 211.175C233.643 211.519 233.936 211.655 234.281 211.446L255.612 199.218C256.061 198.957 256.427 198.267 256.427 197.671C256.427 197.159 256.155 196.908 255.8 197.002H255.81Z" fill="#480689"/>
<path d="M255.821 192.613C255.852 192.707 255.873 192.822 255.873 192.957C255.873 193.553 255.507 194.253 255.057 194.504L233.727 206.733C233.664 206.774 233.601 206.774 233.539 206.785C233.654 207.13 233.946 207.266 234.292 207.057L255.622 194.828C256.072 194.567 256.438 193.877 256.438 193.281C256.438 192.769 256.166 192.518 255.81 192.613H255.821Z" fill="#480689"/>
<path d="M255.831 188.223C255.863 188.317 255.884 188.432 255.884 188.568C255.884 189.163 255.518 189.864 255.068 190.115L233.737 202.343C233.675 202.385 233.612 202.385 233.549 202.395C233.664 202.74 233.957 202.876 234.302 202.667L255.633 190.439C256.082 190.177 256.448 189.487 256.448 188.892C256.448 188.38 256.176 188.129 255.821 188.223H255.831Z" fill="#480689"/>
<path d="M255.842 183.833C255.873 183.927 255.894 184.042 255.894 184.178C255.894 184.774 255.528 185.474 255.078 185.725L233.748 197.953C233.685 197.995 233.622 197.995 233.56 198.006C233.675 198.35 233.967 198.486 234.312 198.277L255.643 186.049C256.093 185.788 256.459 185.098 256.459 184.502C256.459 183.99 256.187 183.739 255.831 183.833H255.842Z" fill="#480689"/>
<path d="M207.116 229.266L228.446 217.038C228.896 216.777 229.262 217.059 229.262 217.655C229.262 218.25 228.896 218.951 228.446 219.201L207.116 231.43C206.666 231.691 206.3 231.409 206.3 230.813C206.3 230.217 206.666 229.517 207.116 229.266Z" fill="#370175"/>
<path d="M228.624 216.975C228.656 217.069 228.677 217.184 228.677 217.32C228.677 217.916 228.311 218.616 227.861 218.867L206.53 231.095C206.468 231.137 206.405 231.137 206.342 231.148C206.457 231.492 206.75 231.628 207.095 231.419L228.426 219.191C228.875 218.93 229.241 218.24 229.241 217.644C229.241 217.132 228.969 216.881 228.614 216.975H228.624Z" fill="#480689"/>
<path d="M207.126 224.866L228.457 212.638C228.907 212.376 229.273 212.659 229.273 213.254C229.273 213.85 228.907 214.55 228.457 214.801L207.126 227.03C206.677 227.291 206.311 227.009 206.311 226.413C206.311 225.817 206.677 225.117 207.126 224.866Z" fill="#370175"/>
<path d="M207.137 220.466L228.467 208.238C228.917 207.976 229.283 208.259 229.283 208.854C229.283 209.45 228.917 210.15 228.467 210.401L207.137 222.629C206.687 222.891 206.321 222.609 206.321 222.013C206.321 221.417 206.687 220.717 207.137 220.466Z" fill="#370175"/>
<path d="M207.147 216.066L228.478 203.838C228.927 203.576 229.293 203.858 229.293 204.454C229.293 205.05 228.927 205.75 228.478 206.001L207.147 218.229C206.698 218.491 206.332 218.208 206.332 217.613C206.332 217.017 206.698 216.317 207.147 216.066Z" fill="#370175"/>
<path d="M207.158 211.676L228.488 199.448C228.938 199.187 229.304 199.469 229.304 200.064C229.304 200.66 228.938 201.36 228.488 201.611L207.158 213.84C206.708 214.101 206.342 213.819 206.342 213.223C206.342 212.627 206.708 211.927 207.158 211.676Z" fill="#370175"/>
<path d="M228.635 212.586C228.666 212.68 228.687 212.795 228.687 212.93C228.687 213.526 228.321 214.226 227.871 214.477L206.541 226.706C206.478 226.747 206.415 226.747 206.353 226.758C206.468 227.103 206.76 227.239 207.105 227.03L228.436 214.801C228.886 214.54 229.252 213.85 229.252 213.254C229.252 212.742 228.98 212.491 228.624 212.586H228.635Z" fill="#480689"/>
<path d="M228.645 208.196C228.677 208.29 228.697 208.405 228.697 208.541C228.697 209.136 228.331 209.837 227.882 210.088L206.551 222.316C206.489 222.358 206.426 222.358 206.363 222.368C206.478 222.713 206.771 222.849 207.116 222.64L228.446 210.412C228.896 210.15 229.262 209.46 229.262 208.865C229.262 208.353 228.99 208.102 228.635 208.196H228.645Z" fill="#480689"/>
<path d="M228.666 203.806C228.697 203.9 228.718 204.015 228.718 204.151C228.718 204.747 228.352 205.447 227.903 205.698L206.572 217.926C206.509 217.968 206.447 217.968 206.384 217.979C206.499 218.323 206.792 218.459 207.137 218.25L228.467 206.022C228.917 205.761 229.283 205.071 229.283 204.475C229.283 203.963 229.011 203.712 228.656 203.806H228.666Z" fill="#480689"/>
<path d="M228.677 199.406C228.708 199.5 228.729 199.615 228.729 199.751C228.729 200.347 228.363 201.047 227.913 201.298L206.583 213.526C206.52 213.568 206.457 213.568 206.394 213.578C206.509 213.923 206.802 214.059 207.147 213.85L228.478 201.622C228.927 201.36 229.293 200.671 229.293 200.075C229.293 199.563 229.022 199.312 228.666 199.406H228.677Z" fill="#480689"/>
<path opacity="0.7" d="M92.1607 343.116L60.3321 324.742C58.0735 323.435 58.3558 321.157 60.9699 319.641L91.5333 302.009C94.1473 300.504 98.0998 300.337 100.358 301.644L132.187 320.017C134.445 321.324 134.163 323.602 131.549 325.118L100.986 342.75C98.3716 344.255 94.4192 344.422 92.1607 343.116Z" fill="#0B0244"/>
<path d="M151.939 294.307H136.15L118.573 284.169C116.314 282.862 112.362 283.029 109.748 284.534L92.809 294.307H77.0306V304.894C76.9679 305.782 77.4593 306.629 78.5467 307.256L110.375 325.63C112.634 326.936 116.586 326.769 119.2 325.264L149.764 307.632C151.123 306.848 151.845 305.856 151.918 304.905H151.928V294.317L151.939 294.307Z" fill="url(#paint31_linear_493_72)"/>
<path d="M149.785 306.901L119.221 324.533C116.607 326.038 112.655 326.205 110.396 324.898L78.5676 306.524C77.4802 305.897 76.9887 305.04 77.0515 304.162V304.894C76.9887 305.782 77.4802 306.629 78.5676 307.256L110.396 325.62C112.655 326.926 116.607 326.759 119.221 325.254L149.785 307.622C151.144 306.838 151.865 305.845 151.939 304.894H151.949V304.162H151.939C151.865 305.114 151.144 306.106 149.785 306.89V306.901Z" fill="url(#paint32_linear_493_72)"/>
<path d="M78.0449 305.636V295.049H93.8232L110.762 285.276C113.376 283.771 117.329 283.604 119.587 284.911L137.164 295.049H151.949V294.317H136.16L118.583 284.179C116.325 282.873 112.373 283.04 109.758 284.545L92.8194 294.317H77.0411V304.904C76.9783 305.793 77.4698 306.639 78.5572 307.267L78.735 307.371C78.2226 306.848 77.9926 306.253 78.0344 305.636H78.0449Z" fill="#08D410"/>
<path d="M151.05 295.153V305.688H151.039C150.998 306.232 150.747 306.786 150.286 307.308C151.322 306.587 151.876 305.73 151.939 304.894H151.949V294.411C151.625 294.62 151.322 294.86 151.05 295.153Z" fill="#6EE8FC"/>
<path d="M110.396 315.043L78.5677 296.669C76.3091 295.362 76.5914 293.084 79.2055 291.568L109.769 273.936C112.383 272.431 116.335 272.264 118.594 273.571L150.422 291.944C152.681 293.251 152.399 295.529 149.785 297.045L119.221 314.677C116.607 316.182 112.655 316.349 110.396 315.043Z" fill="url(#paint33_linear_493_72)"/>
<path d="M150.412 291.944L118.583 273.571C117.412 272.891 115.781 272.619 114.129 272.714C115.332 272.787 116.461 273.069 117.339 273.571L149.168 291.944C151.426 293.251 151.144 295.529 148.53 297.045L117.967 314.677C116.712 315.408 115.133 315.816 113.596 315.9C115.509 316.015 117.611 315.596 119.211 314.677L149.774 297.045C152.388 295.54 152.671 293.251 150.412 291.944Z" fill="#6EE8FC"/>
<path d="M111.442 309.744L87.7481 296.073C86.0647 295.101 86.2738 293.397 88.2186 292.279L110.971 279.152C112.916 278.033 115.865 277.908 117.548 278.88L141.242 292.551C142.925 293.523 142.716 295.226 140.771 296.345L118.019 309.472C116.074 310.59 113.125 310.716 111.442 309.744Z" fill="url(#paint34_linear_493_72)"/>
<path d="M112.278 305.49L95.1093 295.582C93.8859 294.881 94.0428 293.648 95.4544 292.833L111.933 283.322C113.345 282.507 115.478 282.423 116.691 283.123L133.86 293.031C135.083 293.732 134.926 294.965 133.515 295.78L117.036 305.291C115.624 306.106 113.491 306.19 112.278 305.49Z" fill="#6DE0F6"/>
<path d="M111.818 315.043L79.9897 296.669C77.7312 295.362 78.0135 293.084 80.6275 291.568L111.191 273.936C112.435 273.215 113.972 272.808 115.499 272.714C113.554 272.578 111.4 272.996 109.769 273.936L79.2055 291.568C76.5914 293.073 76.3091 295.362 78.5677 296.669L110.396 315.043C111.588 315.732 113.24 316.004 114.924 315.9C113.763 315.816 112.676 315.534 111.829 315.043H111.818Z" fill="#08D410"/>
<mask id="mask3_493_72" style="mask-type:luminance" maskUnits="userSpaceOnUse" x="94" y="282" width="41" height="24">
<path d="M112.278 305.49L95.1093 295.582C93.8859 294.881 94.0428 293.648 95.4544 292.833L111.933 283.322C113.345 282.507 115.478 282.423 116.691 283.123L133.86 293.031C135.083 293.732 134.926 294.965 133.515 295.78L117.036 305.291C115.624 306.106 113.491 306.19 112.278 305.49Z" fill="white"/>
</mask>
<g mask="url(#mask3_493_72)">
<path d="M95.4445 294.181L111.934 284.66C113.345 283.845 115.479 283.761 116.702 284.461L133.881 294.369C134.153 294.526 134.341 294.714 134.477 294.913C134.885 294.244 134.707 293.512 133.881 293.031L116.702 283.123C115.479 282.423 113.345 282.507 111.934 283.322L95.4445 292.843C94.3466 293.481 94.0225 294.359 94.5035 295.049C94.6917 294.735 94.9949 294.432 95.4445 294.181Z" fill="#267FE5"/>
<path d="M95.444 295.791L111.933 286.269C113.345 285.454 115.478 285.37 116.701 286.071L133.881 295.979C134.1 296.104 134.257 296.251 134.383 296.397C134.926 295.686 134.78 294.881 133.881 294.359L116.701 284.451C115.478 283.75 113.345 283.834 111.933 284.649L95.444 294.171C94.2833 294.84 93.9906 295.791 94.597 296.501C94.7957 296.251 95.0676 296 95.444 295.791Z" fill="#25BFEC"/>
<path d="M94.7643 298.299C94.942 298.111 95.1616 297.933 95.4439 297.766L111.933 288.245C113.345 287.429 115.478 287.346 116.701 288.046L133.881 297.954C134.006 298.027 134.121 298.111 134.215 298.195C134.937 297.442 134.853 296.543 133.881 295.979L116.701 286.071C115.478 285.37 113.345 285.454 111.933 286.269L95.4439 295.791C94.1892 296.522 93.9383 297.578 94.7643 298.299Z" fill="#18D0F7"/>
</g>
<path opacity="0.7" d="M274.381 339.186L242.552 320.812C240.293 319.505 240.576 317.227 243.19 315.711L273.753 298.08C276.367 296.575 280.32 296.407 282.578 297.714L314.407 316.088C316.665 317.394 316.383 319.673 313.769 321.188L283.206 338.82C280.591 340.325 276.639 340.492 274.381 339.186Z" fill="#0B0244"/>
<path d="M305.132 294.307H289.343L271.766 284.169C269.508 282.862 265.555 283.029 262.941 284.534L246.002 294.307H230.224V304.894C230.161 305.782 230.653 306.629 231.74 307.256L263.569 325.63C265.827 326.936 269.78 326.769 272.394 325.264L302.957 307.632C304.317 306.848 305.038 305.856 305.111 304.905H305.122V294.317L305.132 294.307Z" fill="url(#paint35_linear_493_72)"/>
<path d="M302.968 306.901L272.404 324.533C269.79 326.038 265.838 326.205 263.579 324.898L231.751 306.524C230.663 305.897 230.172 305.04 230.235 304.162V304.894C230.172 305.782 230.663 306.629 231.751 307.256L263.579 325.62C265.838 326.926 269.79 326.759 272.404 325.254L302.968 307.622C304.327 306.838 305.048 305.845 305.122 304.894H305.132V304.162H305.122C305.048 305.114 304.327 306.106 302.968 306.89V306.901Z" fill="url(#paint36_linear_493_72)"/>
<path d="M231.238 305.636V295.049H247.017L263.956 285.276C266.57 283.771 270.522 283.604 272.781 284.911L290.358 295.049H305.143V294.317H289.354L271.777 284.179C269.518 282.873 265.566 283.04 262.952 284.545L246.013 294.317H230.235V304.904C230.172 305.793 230.663 306.639 231.751 307.267L231.928 307.371C231.416 306.848 231.186 306.253 231.228 305.636H231.238Z" fill="#08D410"/>
<path d="M304.243 295.153V305.688H304.233C304.191 306.232 303.94 306.786 303.48 307.308C304.515 306.587 305.069 305.73 305.132 304.894H305.143V294.411C304.818 294.62 304.515 294.86 304.243 295.153Z" fill="#6EE8FC"/>
<path d="M263.58 315.043L231.751 296.669C229.492 295.362 229.775 293.084 232.389 291.568L262.952 273.936C265.566 272.431 269.519 272.264 271.777 273.571L303.606 291.945C305.864 293.251 305.582 295.529 302.968 297.045L272.405 314.677C269.791 316.182 265.838 316.349 263.58 315.043Z" fill="url(#paint37_linear_493_72)"/>
<path d="M303.605 291.944L271.777 273.571C270.606 272.891 268.975 272.619 267.323 272.714C268.525 272.787 269.654 273.069 270.533 273.571L302.361 291.944C304.62 293.251 304.337 295.529 301.723 297.045L271.16 314.677C269.905 315.408 268.326 315.816 266.789 315.9C268.703 316.015 270.804 315.596 272.404 314.677L302.968 297.045C305.582 295.54 305.864 293.251 303.605 291.944Z" fill="#6EE8FC"/>
<path d="M264.625 309.744L240.931 296.073C239.248 295.101 239.457 293.397 241.402 292.279L264.154 279.152C266.099 278.033 269.048 277.908 270.731 278.88L294.425 292.551C296.108 293.523 295.899 295.226 293.954 296.345L271.202 309.472C269.257 310.59 266.308 310.716 264.625 309.744Z" fill="url(#paint38_linear_493_72)"/>
<path d="M265.472 305.49L248.303 295.582C247.079 294.881 247.236 293.648 248.648 292.833L265.127 283.322C266.538 282.507 268.671 282.423 269.884 283.123L287.053 293.031C288.277 293.732 288.12 294.965 286.708 295.78L270.229 305.291C268.818 306.106 266.685 306.19 265.472 305.49Z" fill="#6DE0F6"/>
<path d="M265.012 315.043L233.183 296.669C230.925 295.362 231.207 293.084 233.821 291.568L264.385 273.936C265.629 273.215 267.166 272.808 268.693 272.714C266.748 272.578 264.594 272.996 262.963 273.936L232.399 291.568C229.785 293.073 229.503 295.362 231.761 296.669L263.59 315.043C264.782 315.732 266.434 316.004 268.118 315.9C266.957 315.816 265.869 315.534 265.022 315.043H265.012Z" fill="#08D410"/>
<mask id="mask4_493_72" style="mask-type:luminance" maskUnits="userSpaceOnUse" x="247" y="282" width="41" height="24">
<path d="M265.472 305.49L248.303 295.582C247.079 294.881 247.236 293.648 248.648 292.833L265.127 283.322C266.538 282.507 268.671 282.423 269.884 283.123L287.053 293.031C288.277 293.732 288.12 294.965 286.708 295.78L270.229 305.291C268.818 306.106 266.685 306.19 265.472 305.49Z" fill="white"/>
</mask>
<g mask="url(#mask4_493_72)">
<path d="M248.638 294.181L265.127 284.66C266.539 283.845 268.672 283.761 269.895 284.461L287.075 294.369C287.347 294.526 287.535 294.714 287.671 294.913C288.079 294.244 287.901 293.512 287.075 293.031L269.895 283.123C268.672 282.423 266.539 282.507 265.127 283.322L248.638 292.843C247.54 293.481 247.216 294.359 247.697 295.049C247.885 294.735 248.188 294.432 248.638 294.181Z" fill="#267FE5"/>
<path d="M248.637 295.791L265.127 286.269C266.538 285.454 268.671 285.37 269.895 286.071L287.074 295.979C287.294 296.104 287.451 296.251 287.576 296.397C288.12 295.686 287.974 294.881 287.074 294.359L269.895 284.451C268.671 283.75 266.538 283.834 265.127 284.649L248.637 294.171C247.477 294.84 247.184 295.791 247.791 296.501C247.989 296.251 248.261 296 248.637 295.791Z" fill="#25BFEC"/>
<path d="M247.958 298.299C248.136 298.111 248.355 297.933 248.637 297.766L265.127 288.245C266.538 287.429 268.671 287.346 269.895 288.046L287.074 297.954C287.2 298.027 287.315 298.111 287.409 298.195C288.13 297.442 288.047 296.543 287.074 295.979L269.895 286.071C268.671 285.37 266.538 285.454 265.127 286.269L248.637 295.791C247.383 296.522 247.132 297.578 247.958 298.299Z" fill="#18D0F7"/>
</g>
<path style="mix-blend-mode:lighten" opacity="0.5" d="M231.395 0H153.131V124.98H153.152C153.152 125.848 153.674 126.673 154.741 127.29L187.981 146.479C190.344 147.848 194.474 147.671 197.203 146.092L229.126 127.677C230.548 126.862 231.301 125.827 231.374 124.823H231.395V0Z" fill="url(#paint39_radial_493_72)"/>
<defs>
<radialGradient id="paint0_radial_493_72" cx="0" cy="0" r="1" gradientUnits="userSpaceOnUse" gradientTransform="translate(-24.7209 139.244) rotate(29.9891) scale(154.369 134.271)">
<stop stop-color="#42E8E0"/>
<stop offset="0.15" stop-color="#33AEB8"/>
<stop offset="0.31" stop-color="#267A95"/>
<stop offset="0.47" stop-color="#1B4F78"/>
<stop offset="0.62" stop-color="#122E61"/>
<stop offset="0.76" stop-color="#0C1651"/>
<stop offset="0.89" stop-color="#090747"/>
<stop offset="1" stop-color="#080344"/>
</radialGradient>
<linearGradient id="paint1_linear_493_72" x1="141.388" y1="269.275" x2="241.025" y2="269.275" gradientUnits="userSpaceOnUse">
<stop stop-color="#42E8E0"/>
<stop offset="0.15" stop-color="#42E3DF"/>
<stop offset="0.33" stop-color="#44D4DE"/>
<stop offset="0.52" stop-color="#48BDDD"/>
<stop offset="0.72" stop-color="#4D9BDA"/>
<stop offset="0.93" stop-color="#5471D8"/>
<stop offset="1" stop-color="#5761D7"/>
</linearGradient>
<linearGradient id="paint2_linear_493_72" x1="69.6277" y1="322.38" x2="312.535" y2="322.38" gradientUnits="userSpaceOnUse">
<stop stop-color="#42E8E0"/>
<stop offset="0.15" stop-color="#42E3DF"/>
<stop offset="0.33" stop-color="#44D4DE"/>
<stop offset="0.52" stop-color="#48DDC2"/>
<stop offset="0.72" stop-color="#4DDA74"/>
<stop offset="0.93" stop-color="#57D854"/>
<stop offset="1" stop-color="#57D7C8"/>
</linearGradient>
<linearGradient id="paint3_linear_493_72" x1="157.292" y1="209.609" x2="109.456" y2="244.315" gradientUnits="userSpaceOnUse">
<stop stop-color="#42E8E0"/>
<stop offset="0.15" stop-color="#42E3DF"/>
<stop offset="0.33" stop-color="#44D4DE"/>
<stop offset="0.52" stop-color="#48BDDD"/>
<stop offset="0.72" stop-color="#4D9BDA"/>
<stop offset="0.93" stop-color="#5471D8"/>
<stop offset="1" stop-color="#5761D7"/>
</linearGradient>
<linearGradient id="paint4_linear_493_72" x1="185.735" y1="194.162" x2="240.919" y2="172.992" gradientUnits="userSpaceOnUse">
<stop stop-color="#42E8E0"/>
<stop offset="0.15" stop-color="#42E3DF"/>
<stop offset="0.33" stop-color="#44D4DE"/>
<stop offset="0.52" stop-color="#48BDDD"/>
<stop offset="0.72" stop-color="#4D9BDA"/>
<stop offset="0.93" stop-color="#5471D8"/>
<stop offset="1" stop-color="#5761D7"/>
</linearGradient>
<linearGradient id="paint5_linear_493_72" x1="169.523" y1="150.152" x2="219.719" y2="138.337" gradientUnits="userSpaceOnUse">
<stop stop-color="#42E8E0"/>
<stop offset="0.15" stop-color="#42E3DF"/>
<stop offset="0.33" stop-color="#44D4DE"/>
<stop offset="0.52" stop-color="#48BDDD"/>
<stop offset="0.72" stop-color="#4D9BDA"/>
<stop offset="0.93" stop-color="#5471D8"/>
<stop offset="1" stop-color="#5761D7"/>
</linearGradient>
<linearGradient id="paint6_linear_493_72" x1="160.047" y1="113.644" x2="206.588" y2="107.241" gradientUnits="userSpaceOnUse">
<stop stop-color="#42E8E0"/>
<stop offset="0.15" stop-color="#42E3DF"/>
<stop offset="0.33" stop-color="#44D4DE"/>
<stop offset="0.52" stop-color="#48BDDD"/>
<stop offset="0.72" stop-color="#4D9BDA"/>
<stop offset="0.93" stop-color="#5471D8"/>
<stop offset="1" stop-color="#5761D7"/>
</linearGradient>
<linearGradient id="paint7_linear_493_72" x1="153.426" y1="81.4115" x2="192.302" y2="73.4068" gradientUnits="userSpaceOnUse">
<stop stop-color="#42E8E0"/>
<stop offset="0.15" stop-color="#42E3DF"/>
<stop offset="0.33" stop-color="#44D4DE"/>
<stop offset="0.52" stop-color="#48BDDD"/>
<stop offset="0.72" stop-color="#4D9BDA"/>
<stop offset="0.93" stop-color="#5471D8"/>
<stop offset="1" stop-color="#5761D7"/>
</linearGradient>
<linearGradient id="paint8_linear_493_72" x1="145.414" y1="52.6435" x2="182.495" y2="38.5219" gradientUnits="userSpaceOnUse">
<stop stop-color="#42E8E0"/>
<stop offset="0.15" stop-color="#42E3DF"/>
<stop offset="0.33" stop-color="#44D4DE"/>
<stop offset="0.52" stop-color="#48BDDD"/>
<stop offset="0.72" stop-color="#4D9BDA"/>
<stop offset="0.93" stop-color="#5471D8"/>
<stop offset="1" stop-color="#5761D7"/>
</linearGradient>
<linearGradient id="paint9_linear_493_72" x1="138.602" y1="166.188" x2="94.2934" y2="196.166" gradientUnits="userSpaceOnUse">
<stop stop-color="#42E8E0"/>
<stop offset="0.15" stop-color="#42E3DF"/>
<stop offset="0.33" stop-color="#44D4DE"/>
<stop offset="0.52" stop-color="#48BDDD"/>
<stop offset="0.72" stop-color="#4D9BDA"/>
<stop offset="0.93" stop-color="#5471D8"/>
<stop offset="1" stop-color="#5761D7"/>
</linearGradient>
<linearGradient id="paint10_linear_493_72" x1="125.004" y1="127.09" x2="83.7272" y2="146.778" gradientUnits="userSpaceOnUse">
<stop stop-color="#42E8E0"/>
<stop offset="0.15" stop-color="#42E3DF"/>
<stop offset="0.33" stop-color="#44D4DE"/>
<stop offset="0.52" stop-color="#48BDDD"/>
<stop offset="0.72" stop-color="#4D9BDA"/>
<stop offset="0.93" stop-color="#5471D8"/>
<stop offset="1" stop-color="#5761D7"/>
</linearGradient>
<linearGradient id="paint11_linear_493_72" x1="120.023" y1="91.8417" x2="81.4991" y2="103.625" gradientUnits="userSpaceOnUse">
<stop stop-color="#42E8E0"/>
<stop offset="0.15" stop-color="#42E3DF"/>
<stop offset="0.33" stop-color="#44D4DE"/>
<stop offset="0.52" stop-color="#48BDDD"/>
<stop offset="0.72" stop-color="#4D9BDA"/>
<stop offset="0.93" stop-color="#5471D8"/>
<stop offset="1" stop-color="#5761D7"/>
</linearGradient>
<linearGradient id="paint12_linear_493_72" x1="119.714" y1="59.0304" x2="82.0549" y2="58.4978" gradientUnits="userSpaceOnUse">
<stop stop-color="#42E8E0"/>
<stop offset="0.15" stop-color="#42E3DF"/>
<stop offset="0.33" stop-color="#44D4DE"/>
<stop offset="0.52" stop-color="#48BDDD"/>
<stop offset="0.72" stop-color="#4D9BDA"/>
<stop offset="0.93" stop-color="#5471D8"/>
<stop offset="1" stop-color="#5761D7"/>
</linearGradient>
<linearGradient id="paint13_linear_493_72" x1="143.989" y1="36.1936" x2="134.431" y2="5.34341" gradientUnits="userSpaceOnUse">
<stop stop-color="#42E8E0"/>
<stop offset="0.15" stop-color="#42E3DF"/>
<stop offset="0.33" stop-color="#44D4DE"/>
<stop offset="0.52" stop-color="#48BDDD"/>
<stop offset="0.72" stop-color="#4D9BDA"/>
<stop offset="0.93" stop-color="#5471D8"/>
<stop offset="1" stop-color="#5761D7"/>
</linearGradient>
<linearGradient id="paint14_linear_493_72" x1="232.657" y1="141.756" x2="80.7822" y2="109.709" gradientUnits="userSpaceOnUse">
<stop stop-color="#42E8E0"/>
<stop offset="0.15" stop-color="#42E3DF"/>
<stop offset="0.33" stop-color="#44D4DE"/>
<stop offset="0.52" stop-color="#48BDDD"/>
<stop offset="0.72" stop-color="#4D9BDA"/>
<stop offset="0.93" stop-color="#5471D8"/>
<stop offset="1" stop-color="#5761D7"/>
</linearGradient>
<linearGradient id="paint15_linear_493_72" x1="296.461" y1="182.711" x2="344.568" y2="219.165" gradientUnits="userSpaceOnUse">
<stop stop-color="#42E8E0"/>
<stop offset="1" stop-color="#00FB19"/>
</linearGradient>
<linearGradient id="paint16_linear_493_72" x1="288.536" y1="177.447" x2="344.024" y2="218.584" gradientUnits="userSpaceOnUse">
<stop stop-color="#42E8E0"/>
<stop offset="0.15" stop-color="#42E3DF"/>
<stop offset="0.33" stop-color="#44D4DE"/>
<stop offset="0.52" stop-color="#48BDDD"/>
<stop offset="0.72" stop-color="#4D9BDA"/>
<stop offset="0.93" stop-color="#5471D8"/>
<stop offset="1" stop-color="#5761D7"/>
</linearGradient>
<linearGradient id="paint17_linear_493_72" x1="241.042" y1="128.586" x2="286.754" y2="150.872" gradientUnits="userSpaceOnUse">
<stop stop-color="#42E8E0"/>
<stop offset="1" stop-color="#00FB91"/>
</linearGradient>
<linearGradient id="paint18_linear_493_72" x1="242.78" y1="129.317" x2="286.302" y2="150.534" gradientUnits="userSpaceOnUse">
<stop stop-color="#42E8E0"/>
<stop offset="0.15" stop-color="#42E3DF"/>
<stop offset="0.33" stop-color="#44D4DE"/>
<stop offset="0.52" stop-color="#48BDDD"/>
<stop offset="0.72" stop-color="#4D9BDA"/>
<stop offset="0.93" stop-color="#5471D8"/>
<stop offset="1" stop-color="#5761D7"/>
</linearGradient>
<linearGradient id="paint19_linear_493_72" x1="98.8358" y1="191.958" x2="51.8976" y2="226.756" gradientUnits="userSpaceOnUse">
<stop stop-color="#42E8E0"/>
<stop offset="1" stop-color="#00FB91"/>
</linearGradient>
<linearGradient id="paint20_linear_493_72" x1="97.0221" y1="193.145" x2="52.3263" y2="226.281" gradientUnits="userSpaceOnUse">
<stop stop-color="#42E8E0"/>
<stop offset="0.15" stop-color="#42E3DF"/>
<stop offset="0.33" stop-color="#44D4DE"/>
<stop offset="0.52" stop-color="#48BDDD"/>
<stop offset="0.72" stop-color="#4D9BDA"/>
<stop offset="0.93" stop-color="#5471D8"/>
<stop offset="1" stop-color="#5761D7"/>
</linearGradient>
<linearGradient id="paint21_linear_493_72" x1="106.005" y1="206.482" x2="282.766" y2="206.482" gradientUnits="userSpaceOnUse">
<stop stop-color="#00FB91"/>
<stop offset="1" stop-color="#42E8E0"/>
</linearGradient>
<linearGradient id="paint22_linear_493_72" x1="54.2373" y1="114.89" x2="162.546" y2="94.0341" gradientUnits="userSpaceOnUse">
<stop stop-color="#139B18"/>
<stop offset="0.17" stop-color="#1EA11B"/>
<stop offset="0.43" stop-color="#3CB132"/>
<stop offset="0.76" stop-color="#49CC4E"/>
<stop offset="1" stop-color="#29E452"/>
</linearGradient>
<linearGradient id="paint23_linear_493_72" x1="68.3655" y1="112.169" x2="149.007" y2="96.6398" gradientUnits="userSpaceOnUse">
<stop stop-color="#630692"/>
<stop offset="0.23" stop-color="#5A0D93"/>
<stop offset="0.59" stop-color="#432299"/>
<stop offset="1" stop-color="#2142A1"/>
</linearGradient>
<linearGradient id="paint24_linear_493_72" x1="-1693.34" y1="150.743" x2="-1692.29" y2="150.743" gradientUnits="userSpaceOnUse">
<stop stop-color="#A31FA9"/>
<stop offset="0.07" stop-color="#8A16A0"/>
<stop offset="0.15" stop-color="#740F98"/>
<stop offset="0.24" stop-color="#640A92"/>
<stop offset="0.34" stop-color="#5A068F"/>
<stop offset="0.48" stop-color="#58068E"/>
<stop offset="0.63" stop-color="#4D21A3"/>
<stop offset="0.94" stop-color="#3167D9"/>
<stop offset="1" stop-color="#2C75E4"/>
</linearGradient>
<linearGradient id="paint25_linear_493_72" x1="47.8772" y1="96.5321" x2="156.186" y2="75.6764" gradientUnits="userSpaceOnUse">
<stop stop-color="#139B18"/>
<stop offset="0.17" stop-color="#1EA11B"/>
<stop offset="0.43" stop-color="#32B13F"/>
<stop offset="0.76" stop-color="#4CCC49"/>
<stop offset="1" stop-color="#29E43C"/>
</linearGradient>
<linearGradient id="paint26_linear_493_72" x1="62.0053" y1="93.8116" x2="142.642" y2="78.2911" gradientUnits="userSpaceOnUse">
<stop stop-color="#630692"/>
<stop offset="0.23" stop-color="#5A0D93"/>
<stop offset="0.59" stop-color="#432299"/>
<stop offset="1" stop-color="#2142A1"/>
</linearGradient>
<linearGradient id="paint27_linear_493_72" x1="-1693.34" y1="138.233" x2="-1692.29" y2="138.233" gradientUnits="userSpaceOnUse">
<stop stop-color="#A31FA9"/>
<stop offset="0.07" stop-color="#8A16A0"/>
<stop offset="0.15" stop-color="#740F98"/>
<stop offset="0.24" stop-color="#640A92"/>
<stop offset="0.34" stop-color="#5A068F"/>
<stop offset="0.48" stop-color="#58068E"/>
<stop offset="0.63" stop-color="#4D21A3"/>
<stop offset="0.94" stop-color="#3167D9"/>
<stop offset="1" stop-color="#2C75E4"/>
</linearGradient>
<linearGradient id="paint28_linear_493_72" x1="42.4543" y1="80.8996" x2="150.772" y2="60.0491" gradientUnits="userSpaceOnUse">
<stop stop-color="#269B13"/>
<stop offset="0.17" stop-color="#1EA11B"/>
<stop offset="0.43" stop-color="#4BB132"/>
<stop offset="0.76" stop-color="#4CCC49"/>
<stop offset="1" stop-color="#2DE429"/>
</linearGradient>
<linearGradient id="paint29_linear_493_72" x1="56.5915" y1="78.1844" x2="137.219" y2="62.6586" gradientUnits="userSpaceOnUse">
<stop stop-color="#630692"/>
<stop offset="0.23" stop-color="#5A0D93"/>
<stop offset="0.59" stop-color="#432299"/>
<stop offset="1" stop-color="#2142A1"/>
</linearGradient>
<linearGradient id="paint30_linear_493_72" x1="83.7226" y1="193.041" x2="250.628" y2="253.665" gradientUnits="userSpaceOnUse">
<stop stop-color="#1B6700"/>
<stop offset="1" stop-color="#42E8E0"/>
</linearGradient>
<linearGradient id="paint31_linear_493_72" x1="69.9518" y1="304.904" x2="161.213" y2="304.904" gradientUnits="userSpaceOnUse">
<stop stop-color="#00FB91"/>
<stop offset="1" stop-color="#42E8E0"/>
</linearGradient>
<linearGradient id="paint32_linear_493_72" x1="69.9517" y1="315.346" x2="161.213" y2="315.346" gradientUnits="userSpaceOnUse">
<stop stop-color="#56D408"/>
<stop offset="0.23" stop-color="#31D408"/>
<stop offset="0.51" stop-color="#92F86E"/>
<stop offset="0.78" stop-color="#ACFC6E"/>
<stop offset="1" stop-color="#A4FC6E"/>
</linearGradient>
<linearGradient id="paint33_linear_493_72" x1="-43.7584" y1="224.942" x2="12.1639" y2="214.17" gradientUnits="userSpaceOnUse">
<stop stop-color="#8D139B"/>
<stop offset="0.17" stop-color="#841BA1"/>
<stop offset="0.43" stop-color="#6D32B1"/>
<stop offset="0.76" stop-color="#4958CC"/>
<stop offset="1" stop-color="#2979E4"/>
</linearGradient>
<linearGradient id="paint34_linear_493_72" x1="-36.4595" y1="223.53" x2="5.16906" y2="215.518" gradientUnits="userSpaceOnUse">
<stop stop-color="#630692"/>
<stop offset="0.23" stop-color="#5A0D93"/>
<stop offset="0.59" stop-color="#432299"/>
<stop offset="1" stop-color="#2142A1"/>
</linearGradient>
<linearGradient id="paint35_linear_493_72" x1="223.135" y1="304.904" x2="314.396" y2="304.904" gradientUnits="userSpaceOnUse">
<stop stop-color="#00FB91"/>
<stop offset="1" stop-color="#42E8E0"/>
</linearGradient>
<linearGradient id="paint36_linear_493_72" x1="223.135" y1="-0.000166862" x2="314.396" y2="-0.000166862" gradientUnits="userSpaceOnUse">
<stop stop-color="#25D408"/>
<stop offset="0.23" stop-color="#31D408"/>
<stop offset="0.51" stop-color="#92F86E"/>
<stop offset="0.78" stop-color="#82FC6E"/>
<stop offset="1" stop-color="#82FC6E"/>
</linearGradient>
<linearGradient id="paint37_linear_493_72" x1="71.1418" y1="202.837" x2="127.059" y2="192.074" gradientUnits="userSpaceOnUse">
<stop stop-color="#8D139B"/>
<stop offset="0.17" stop-color="#841BA1"/>
<stop offset="0.43" stop-color="#6D32B1"/>
<stop offset="0.76" stop-color="#4958CC"/>
<stop offset="1" stop-color="#2979E4"/>
</linearGradient>
<linearGradient id="paint38_linear_493_72" x1="78.4353" y1="201.434" x2="120.064" y2="193.422" gradientUnits="userSpaceOnUse">
<stop stop-color="#630692"/>
<stop offset="0.23" stop-color="#5A0D93"/>
<stop offset="0.59" stop-color="#432299"/>
<stop offset="1" stop-color="#2142A1"/>
</linearGradient>
<radialGradient id="paint39_radial_493_72" cx="0" cy="0" r="1" gradientUnits="userSpaceOnUse" gradientTransform="translate(193.136 91.9218) scale(143.657 143.595)">
<stop stop-color="#42E8E0"/>
<stop offset="0.1" stop-color="#38C1C5"/>
<stop offset="0.28" stop-color="#28839B"/>
<stop offset="0.44" stop-color="#1C537A"/>
<stop offset="0.59" stop-color="#133062"/>
<stop offset="0.7" stop-color="#0D1A54"/>
<stop offset="0.78" stop-color="#0C134F"/>
<stop offset="0.89" stop-color="#090747"/>
<stop offset="1" stop-color="#080344"/>
</radialGradient>
</defs>
</svg>
