<svg width="425" height="399" viewBox="0 0 425 399" fill="none" xmlns="http://www.w3.org/2000/svg">
<path d="M338.171 322.161L330.426 325.288L309.288 305.655L315.712 295.38L336.67 300.612L338.171 322.161ZM308.748 306.518L329.402 325.702L318.14 330.248L304.259 313.696L308.748 306.518ZM308.002 305.825L303.219 313.474L303.026 313.782L303.26 314.061L317.608 331.169L317.841 331.447L318.178 331.311L330.211 326.453L341.626 337.056L313.73 397.19L247.919 389.241L244.889 373.815L266.483 366.075L266.825 365.953L266.814 365.59L265.072 307.527L293.055 291.943L308.002 305.825ZM243.742 373.164L173.663 398.282L113.78 320.856L168.912 239.979L262.868 267.42L264.054 306.949L234.337 323.498L234.02 323.675L234.09 324.032L243.742 373.164ZM235.141 324.195L264.088 308.075L265.804 365.257L244.694 372.823L235.141 324.195ZM0.869348 37.7664L18.1244 10.1691L49.7031 18.0516L51.9647 50.5205L21.7838 62.7049L0.869348 37.7664ZM271.738 177.975L236.724 222.333L183.717 202.74L185.971 146.273L240.371 130.967L271.738 177.975ZM358.898 171.098L260.318 134.661L264.509 29.6453L365.68 1.17992L424.015 88.6026L358.898 171.098Z" stroke="white"/>
</svg>
