<svg width="61" height="58" viewBox="0 0 61 58" fill="none" xmlns="http://www.w3.org/2000/svg">
<path d="M60.8949 28.7781C60.8949 12.8895 47.4028 0 30.7479 0C14.0929 0 0.60083 12.8794 0.60083 28.7781C0.60083 43.1421 11.6236 55.0485 26.0404 57.2051V37.0936H18.3906V28.7781H26.0404V22.4387C26.0404 15.2266 30.5377 11.2444 37.4309 11.2444C40.7303 11.2444 44.1769 11.8061 44.1769 11.8061V18.8878H40.3731C36.6323 18.8878 35.4554 21.1046 35.4554 23.3816V28.7781H43.8197L42.4852 37.0936H35.4659V57.2051C49.8722 55.0385 60.8949 43.1421 60.8949 28.7781Z" fill="white" fill-opacity="0.08"/>
<path d="M43.0071 36.7935L44.3416 28.478H35.9774V23.0815C35.9774 20.8045 37.1437 18.5877 40.895 18.5877H44.6989V11.5061C44.6989 11.5061 41.2523 10.9443 37.9528 10.9443C31.0702 10.9443 26.5623 14.9265 26.5623 22.1386V28.478H18.9126V36.7935H26.5623V56.905C28.0965 57.1357 29.6726 57.2561 31.2698 57.2561C32.867 57.2561 34.4432 57.1357 35.9774 56.905V36.7935H43.0071Z" fill="white"/>
</svg>
