<svg width="61" height="58" viewBox="0 0 61 58" fill="none" xmlns="http://www.w3.org/2000/svg">
<path d="M30.1471 57.5562C46.7968 57.5562 60.2941 44.6718 60.2941 28.7781C60.2941 12.8844 46.7968 0 30.1471 0C13.4973 0 0 12.8844 0 28.7781C0 44.6718 13.4973 57.5562 30.1471 57.5562Z" fill="white" fill-opacity="0.08"/>
<path d="M25.1454 33.3022L24.4624 40.2636C24.4624 40.2636 24.1787 42.4001 26.4063 40.2636C28.6445 38.127 30.7776 36.482 30.7776 36.482L25.1454 33.3022Z" fill="white"/>
<path d="M20.4692 31.2157L13.1136 28.9287C13.1136 28.9287 12.231 28.5876 12.5147 27.8152C12.5777 27.6548 12.6933 27.5244 13.0401 27.2836C14.6688 26.2003 43.2082 16.4103 43.2082 16.4103C43.2082 16.4103 44.0173 16.1495 44.4901 16.3201C44.7108 16.4003 44.8474 16.4906 44.963 16.8116C45.005 16.9319 45.026 17.1827 45.026 17.4335C45.026 17.614 45.005 17.7845 44.984 18.0453C44.8054 20.7235 39.604 40.7047 39.604 40.7047C39.604 40.7047 39.2887 41.8783 38.1749 41.9184C37.7651 41.9284 37.2712 41.8582 36.6828 41.3667C34.4971 39.5712 26.9315 34.7164 25.2607 33.6531C25.1662 33.5929 25.1346 33.5127 25.1241 33.4425C25.1031 33.3321 25.2292 33.1917 25.2292 33.1917C25.2292 33.1917 38.3956 22.0175 38.7528 20.8439C38.7844 20.7536 38.6793 20.7035 38.5427 20.7436C37.6705 21.0545 22.5077 30.1925 20.8264 31.2056C20.7424 31.2558 20.4692 31.2157 20.4692 31.2157Z" fill="white"/>
</svg>
