<svg width="61" height="58" viewBox="0 0 61 58" fill="none" xmlns="http://www.w3.org/2000/svg">
<path d="M30.694 57.5562C47.3438 57.5562 60.8411 44.6718 60.8411 28.7781C60.8411 12.8844 47.3438 0 30.694 0C14.0443 0 0.546997 12.8844 0.546997 28.7781C0.546997 44.6718 14.0443 57.5562 30.694 57.5562Z" fill="white" fill-opacity="0.08"/>
<path d="M24.6103 45.3488C39.3319 45.3488 47.3809 33.7032 47.3809 23.6123C47.3809 23.2812 47.3704 22.9502 47.3599 22.6293C48.9255 21.5459 50.281 20.2018 51.3528 18.6772C49.9133 19.289 48.3791 19.6903 46.7609 19.8808C48.4106 18.938 49.6821 17.4333 50.281 15.6579C48.7364 16.5306 47.0236 17.1725 45.1952 17.5136C43.7346 16.029 41.6541 15.0962 39.3529 15.0962C34.9291 15.0962 31.3459 18.5167 31.3459 22.7396C31.3459 23.3414 31.4194 23.9232 31.556 24.4849C24.9046 24.164 18.9991 21.1246 15.0587 16.5005C14.3757 17.634 13.9764 18.938 13.9764 20.3423C13.9764 22.9904 15.3844 25.3375 17.5385 26.7017C16.2251 26.6616 14.9956 26.3206 13.9133 25.7488C13.9133 25.7789 13.9133 25.809 13.9133 25.8491C13.9133 29.5504 16.6769 32.6399 20.3336 33.3421C19.6611 33.5126 18.9571 33.6129 18.2216 33.6129C17.7067 33.6129 17.2023 33.5627 16.7189 33.4724C17.7382 36.5118 20.6909 38.7185 24.2005 38.7787C21.458 40.825 18.0114 42.0487 14.2601 42.0487C13.6191 42.0487 12.9781 42.0086 12.3477 41.9384C15.8783 44.0849 20.0814 45.3488 24.6103 45.3488Z" fill="white"/>
</svg>
