<svg width="62" height="58" viewBox="0 0 62 58" fill="none" xmlns="http://www.w3.org/2000/svg">
<path d="M30.9033 57.5562C47.553 57.5562 61.0503 44.6718 61.0503 28.7781C61.0503 12.8844 47.553 0 30.9033 0C14.2535 0 0.756226 12.8844 0.756226 28.7781C0.756226 44.6718 14.2535 57.5562 30.9033 57.5562Z" fill="white" fill-opacity="0.08"/>
<path d="M50.1643 19.54C49.702 17.8849 48.3359 16.591 46.6126 16.1496C43.4813 15.3472 30.9139 15.3472 30.9139 15.3472C30.9139 15.3472 18.3465 15.3472 15.2152 16.1496C13.4814 16.591 12.1259 17.895 11.6635 19.54C10.8229 22.5292 10.8229 28.7783 10.8229 28.7783C10.8229 28.7783 10.8229 35.0174 11.6635 38.0166C12.1259 39.6716 13.4919 40.9656 15.2152 41.407C18.3465 42.2094 30.9139 42.2094 30.9139 42.2094C30.9139 42.2094 43.4813 42.2094 46.6126 41.407C48.3464 40.9656 49.702 39.6616 50.1643 38.0166C51.0049 35.0274 51.0049 28.7783 51.0049 28.7783C51.0049 28.7783 50.9944 22.5292 50.1643 19.54ZM26.8789 34.5359V23.0207L37.3237 28.7783L26.8789 34.5359Z" fill="white"/>
</svg>
