<svg width="288" height="288" viewBox="0 0 288 288" fill="none" xmlns="http://www.w3.org/2000/svg">
<path fill-rule="evenodd" clip-rule="evenodd" d="M104.727 0H30C13.4315 0 0 13.4315 0 30V97.5868H21.4215V51.4215C21.4215 34.8529 34.853 21.4215 51.4215 21.4215H104.727V0ZM183.273 21.4215V0H258C274.569 0 288 13.4315 288 30V97.5868H266.579V51.4215C266.579 34.853 253.147 21.4215 236.579 21.4215H183.273ZM183.273 266.579H236.579C253.147 266.579 266.579 253.147 266.579 236.579V176.132H288V258C288 274.569 274.569 288 258 288H183.273V266.579ZM21.4215 176.132V236.579C21.4215 253.147 34.8529 266.579 51.4215 266.579H104.727V288H30C13.4315 288 0 274.569 0 258V176.132H21.4215Z" fill="#D9D9D9"/>
<rect x="36" y="43" width="216" height="203" fill="#D9D9D9"/>
</svg>
