<svg width="399" height="425" viewBox="0 0 399 425" fill="none" xmlns="http://www.w3.org/2000/svg">
<path d="M76.7141 337.919L73.5872 330.173L93.2209 309.035L103.495 315.459L98.2637 336.418L76.7141 337.919ZM92.3575 308.495L73.1737 329.149L68.6273 317.888L85.179 304.007L92.3575 308.495ZM93.0505 307.749L85.4011 302.966L85.0931 302.774L84.8148 303.007L67.7063 317.355L67.428 317.588L67.564 317.925L72.422 329.958L61.8198 341.373L1.68573 313.477L9.63394 247.666L25.06 244.636L32.8 266.23L32.9226 266.572L33.2857 266.561L91.3487 264.819L106.933 292.803L93.0505 307.749ZM25.7112 243.489L0.593231 173.41L78.0192 113.528L158.897 168.659L131.456 262.615L91.9265 263.801L75.3771 234.084L75.2003 233.767L74.8439 233.837L25.7112 243.489ZM74.6802 234.888L90.8007 263.835L33.6188 265.551L26.0524 244.441L74.6802 234.888ZM361.109 0.61654L388.706 17.8716L380.824 49.4503L348.355 51.7119L336.171 21.531L361.109 0.61654ZM220.901 271.485L176.542 236.471L196.135 183.464L252.602 185.718L267.908 240.118L220.901 271.485ZM227.777 358.645L264.215 260.065L369.23 264.256L397.696 365.427L310.273 423.762L227.777 358.645Z" stroke="white"/>
</svg>
