<svg width="52" height="52" viewBox="0 0 52 52" fill="none" xmlns="http://www.w3.org/2000/svg">
<path d="M42 44V40C42 37.8783 41.1571 35.8434 39.6569 34.3431C38.1566 32.8429 36.1217 32 34 32H18C15.8783 32 13.8434 32.8429 12.3431 34.3431C10.8429 35.8434 10 37.8783 10 40V44M34 16C34 20.4183 30.4183 24 26 24C21.5817 24 18 20.4183 18 16C18 11.5817 21.5817 8 26 8C30.4183 8 34 11.5817 34 16Z" stroke="#1E1E1E" stroke-width="4" stroke-linecap="round" stroke-linejoin="round"/>
<circle cx="26" cy="26" r="24.5" stroke="#1E1E1E" stroke-width="3"/>
</svg>
