<svg width="60" height="60" viewBox="0 0 60 60" fill="none" xmlns="http://www.w3.org/2000/svg">
<path fill-rule="evenodd" clip-rule="evenodd" d="M30 60C46.5685 60 60 46.5685 60 30C60 13.4315 46.5685 0 30 0C13.4315 0 0 13.4315 0 30C0 46.5685 13.4315 60 30 60ZM30.0001 53.2501C42.8407 53.2501 53.2501 42.8407 53.2501 30.0001C53.2501 17.1594 42.8407 6.75006 30.0001 6.75006C17.1594 6.75006 6.75006 17.1594 6.75006 30.0001C6.75006 42.8407 17.1594 53.2501 30.0001 53.2501Z" fill="black"/>
<path d="M27.2727 37.5681V37.3635C27.2955 35.1931 27.5227 33.4658 27.9545 32.1817C28.3864 30.8976 29 29.8578 29.7955 29.0624C30.5909 28.2669 31.5455 27.534 32.6591 26.8635C33.3295 26.4544 33.9318 25.9715 34.4659 25.4147C35 24.8465 35.4205 24.1931 35.7273 23.4544C36.0455 22.7158 36.2045 21.8976 36.2045 20.9999C36.2045 19.8862 35.9432 18.9203 35.4205 18.1022C34.8977 17.284 34.1989 16.6533 33.3239 16.2101C32.4489 15.7669 31.4773 15.5453 30.4091 15.5453C29.4773 15.5453 28.5795 15.7385 27.7159 16.1249C26.8523 16.5112 26.1307 17.1192 25.5511 17.9487C24.9716 18.7783 24.6364 19.8635 24.5455 21.2044H20.25C20.3409 19.2726 20.8409 17.6192 21.75 16.2442C22.6705 14.8692 23.8807 13.8181 25.3807 13.0908C26.892 12.3635 28.5682 11.9999 30.4091 11.9999C32.4091 11.9999 34.1477 12.3976 35.625 13.1931C37.1136 13.9885 38.2614 15.0794 39.0682 16.4658C39.8864 17.8521 40.2955 19.4317 40.2955 21.2044C40.2955 22.4544 40.1023 23.5851 39.7159 24.5965C39.3409 25.6078 38.7955 26.5112 38.0795 27.3067C37.375 28.1022 36.5227 28.8067 35.5227 29.4203C34.5227 30.0453 33.7216 30.7044 33.1193 31.3976C32.517 32.0794 32.0795 32.8919 31.8068 33.8351C31.5341 34.7783 31.3864 35.9544 31.3636 37.3635V37.5681H27.2727ZM29.4545 47.659C28.6136 47.659 27.892 47.3578 27.2898 46.7556C26.6875 46.1533 26.3864 45.4317 26.3864 44.5908C26.3864 43.7499 26.6875 43.0283 27.2898 42.426C27.892 41.8237 28.6136 41.5226 29.4545 41.5226C30.2955 41.5226 31.017 41.8237 31.6193 42.426C32.2216 43.0283 32.5227 43.7499 32.5227 44.5908C32.5227 45.1476 32.3807 45.659 32.0966 46.1249C31.8239 46.5908 31.4545 46.9658 30.9886 47.2499C30.5341 47.5226 30.0227 47.659 29.4545 47.659Z" fill="black"/>
</svg>
