<svg width="60" height="60" viewBox="0 0 60 60" fill="none" xmlns="http://www.w3.org/2000/svg">
<path fill-rule="evenodd" clip-rule="evenodd" d="M30 60C46.5685 60 60 46.5685 60 30C60 13.4315 46.5685 0 30 0C13.4315 0 0 13.4315 0 30C0 44.4636 10.2355 56.5367 23.8583 59.3708V31.8H18V27H23.8583V21.5333C23.8583 19.4889 24.1989 17.6 24.8801 15.8666C25.6067 14.0889 26.7648 12.6667 28.3542 11.6C29.9437 10.5333 32.0554 10 34.6894 10C36.0064 10 37.3915 10.1556 38.8447 10.4667C40.3433 10.7333 41.7284 11.1556 43 11.7333L41.4332 16.3333C39.1172 15.4445 37.0963 15 35.3706 15C33.4632 15 31.9873 15.5111 30.9428 16.5333C29.9437 17.5555 29.4441 19.2 29.4441 21.4667V27H40.4796V31.8H29.4441V59.9949C29.629 59.9983 29.8143 60 30 60Z" fill="black"/>
</svg>
