<svg width="60" height="60" viewBox="0 0 60 60" fill="none" xmlns="http://www.w3.org/2000/svg">
<path fill-rule="evenodd" clip-rule="evenodd" d="M30 60C46.5685 60 60 46.5685 60 30C60 13.4315 46.5685 0 30 0C13.4315 0 0 13.4315 0 30C0 46.5685 13.4315 60 30 60ZM14.4347 17.2228C14.1067 16.2422 13.6474 14.0847 14.4347 13.3002C14.7627 12.8643 15.8125 11.7965 17.387 11.012C18.2618 10.4672 20.1425 9.3775 20.6674 9.3775C21.7608 8.8327 24.1446 8.46222 24.9319 11.3389L27.2281 17.5497C27.7748 18.4214 28.5403 20.4263 27.2281 21.4724L24.9319 24.4144C26.244 27.4653 29.7868 34.221 33.4608 36.8361L37.3972 35.8554C38.0533 35.6375 39.6935 35.7247 41.0056 37.8168L46.5822 42.7201C47.0196 43.4828 47.5663 44.6814 45.5981 46.9696C44.286 48.1682 41.3337 50.6308 40.0215 50.8923C39.4748 51.1102 38.7094 51.2192 35.101 48.931C35.101 48.8934 34.8629 48.7264 34.4374 48.4281C31.1592 46.1292 16.7575 36.0297 14.4347 17.2228Z" fill="black"/>
</svg>
