<svg width="53" height="60" viewBox="0 0 53 60" fill="none" xmlns="http://www.w3.org/2000/svg">
<path fill-rule="evenodd" clip-rule="evenodd" d="M47.1217 23.4782C47.1217 13.7016 40.3991 5.49514 31.3243 3.2293C30.8307 1.37009 29.1362 0 27.1217 0H25.3826C23.368 0 21.6735 1.3701 21.18 3.22931C12.1052 5.49516 5.38257 13.7016 5.38257 23.4782V38.2609H5.37711L0.355303 46.9589C-0.108106 47.7615 -0.103675 48.7059 0.283987 49.4762C0.615813 50.5356 1.60507 51.3042 2.77385 51.3042H49.7304C50.7876 51.3042 51.698 50.6753 52.1077 49.7712C52.6402 48.9621 52.7068 47.8892 52.1895 46.9932L47.1478 38.2609H47.1217V23.4782ZM41.0408 38.2609H41.0339L41.0344 38.1989L41.0347 38.1048V23.7904C41.0347 15.6262 34.4163 9.00781 26.2521 9.00781C18.0879 9.00781 11.4695 15.6262 11.4695 23.7904V38.1048C11.4695 38.1569 11.4698 38.2089 11.4703 38.2609H11.4941L6.97573 46.0868H45.5591L41.0408 38.2609ZM26.0869 60C21.1527 60 17.0184 56.2899 15.9313 51.3043H21.6897C22.6168 52.8731 24.2398 53.913 26.0869 53.913C27.934 53.913 29.5569 52.8731 30.4841 51.3043H36.2425C35.1554 56.2899 31.0211 60 26.0869 60Z" fill="black"/>
</svg>
