<svg width="58" height="60" viewBox="0 0 58 60" fill="none" xmlns="http://www.w3.org/2000/svg">
<path d="M4.57889 60C2.05001 60 -6.10352e-05 58.0812 -6.10352e-05 55.7143V44.2857C-6.10352e-05 41.9188 2.05 40 4.57889 40H5.08766C7.61654 40 9.66661 41.9188 9.66661 44.2857V51.4286H48.3333V44.2857C48.3333 41.9188 50.3833 40 52.9122 40H53.421C55.9499 40 57.9999 41.9188 57.9999 44.2857V55.7143C57.9999 58.0812 55.9499 60 53.421 60H4.57889Z" fill="black"/>
<path d="M28.9999 0C26.4711 0 24.421 1.91878 24.421 4.28572V28.2248L20.0272 24.1124C18.239 22.4387 15.3398 22.4387 13.5516 24.1124C11.7634 25.7861 11.7634 28.4996 13.5516 30.1733L25.7065 41.5498C25.7788 41.628 25.8547 41.7044 25.9341 41.7787C27.7223 43.4524 30.6215 43.4524 32.4097 41.7787L44.4386 30.5201C46.2268 28.8464 46.2268 26.1329 44.4386 24.4592C42.6504 22.7855 39.7512 22.7855 37.963 24.4592L33.5789 28.5626V4.28571C33.5789 1.91878 31.5288 0 28.9999 0Z" fill="black"/>
</svg>
